<?xml version="1.0" encoding="UTF-8" standalone="no"?>
<!DOCTYPE svg PUBLIC "-//W3C//DTD SVG 1.1//EN" "http://www.w3.org/Graphics/SVG/1.1/DTD/svg11.dtd">
<svg width="100%" height="100%" viewBox="0 0 957 617" version="1.1" 
  xmlns="http://www.w3.org/2000/svg" 
  xmlns:xlink="http://www.w3.org/1999/xlink" xml:space="preserve" 
  xmlns:serif="http://www.serif.com/" style="fill-rule:evenodd;clip-rule:evenodd;stroke-linejoin:round;stroke-miterlimit:1.41421;">
  <path d="M182.926,89.094l0,13.085l-29.992,0c3.136,4.313 5.635,9.14 7.498,14.482c1.862,5.341 2.793,10.659 2.793,15.951c0,8.233 -1.813,15.707 -5.44,22.421c-3.626,6.714 -8.674,12.497 -15.143,17.348c-6.469,4.852 -14.187,8.601 -23.156,11.247c-8.968,2.647 -18.843,3.97 -29.624,3.97c-3.921,0 -7.964,-0.343 -12.129,-1.029c-4.166,-0.686 -7.768,-1.519 -10.806,-2.5c-3.039,2.451 -5.587,5.293 -7.645,8.528c-2.059,3.234 -3.088,6.518 -3.088,9.85c0,3.136 1.74,5.685 5.219,7.645c3.48,1.96 8.356,3.038 14.629,3.234l58.514,2.5c9.311,0.392 17.079,1.495 23.303,3.308c6.224,1.813 11.198,4.214 14.922,7.204c3.725,2.989 6.347,6.591 7.866,10.806c1.519,4.214 2.279,8.87 2.279,13.967c0,9.213 -2.132,17.544 -6.396,24.993c-4.263,7.449 -10.438,13.796 -18.524,19.039c-8.086,5.244 -17.912,9.287 -29.478,12.129c-11.565,2.843 -24.65,4.264 -39.254,4.264c-26.072,0 -45.552,-2.94 -58.441,-8.821c-12.889,-5.881 -19.333,-13.673 -19.333,-23.376c0,-4.313 1.078,-8.479 3.234,-12.497c2.157,-4.019 4.926,-7.866 8.307,-11.541c3.382,-3.676 7.131,-7.204 11.247,-10.586c4.117,-3.381 8.184,-6.64 12.203,-9.777c-2.941,-0.882 -5.66,-1.96 -8.16,-3.234c-2.499,-1.274 -4.655,-2.72 -6.469,-4.337c-1.813,-1.617 -3.259,-3.382 -4.337,-5.293c-1.078,-1.911 -1.617,-3.994 -1.617,-6.248c0,-3.235 0.833,-6.543 2.499,-9.924c1.667,-3.382 3.97,-6.64 6.91,-9.777c2.941,-3.136 6.347,-6.003 10.218,-8.601c3.872,-2.597 8.013,-4.729 12.423,-6.395c-10.683,-4.509 -19.014,-10.806 -24.993,-18.892c-5.979,-8.086 -8.968,-17.373 -8.968,-27.86c0,-7.743 1.788,-15.07 5.366,-21.98c3.577,-6.91 8.478,-12.938 14.702,-18.083c6.224,-5.146 13.575,-9.214 22.053,-12.203c8.478,-2.99 17.569,-4.484 27.272,-4.484c4.705,0 9.361,0.318 13.967,0.955c4.607,0.637 8.895,1.471 12.865,2.5c3.969,1.029 7.498,2.23 10.585,3.602c3.087,1.372 5.464,2.842 7.13,4.41l44.989,0Zm-126.732,148.344c-2.352,1.764 -4.41,3.724 -6.175,5.881c-1.764,2.156 -3.259,4.435 -4.484,6.836c-1.225,2.401 -2.156,4.803 -2.793,7.204c-0.637,2.401 -0.956,4.68 -0.956,6.837c0,3.528 1.25,6.909 3.749,10.144c2.5,3.234 6.224,6.077 11.174,8.527c4.949,2.45 11.149,4.411 18.598,5.881c7.449,1.47 16.123,2.205 26.022,2.205c10.488,0 19.897,-0.833 28.228,-2.499c8.331,-1.666 15.388,-3.872 21.171,-6.616c5.783,-2.744 10.194,-5.807 13.232,-9.189c3.038,-3.381 4.558,-6.787 4.558,-10.218c0,-7.057 -3.504,-12.202 -10.512,-15.437c-7.008,-3.234 -16.589,-4.852 -28.743,-4.852c-7.547,0 -15.192,-0.171 -22.935,-0.514c-7.743,-0.343 -14.971,-0.76 -21.685,-1.25c-6.714,-0.49 -12.595,-1.004 -17.643,-1.543c-5.048,-0.54 -8.65,-1.005 -10.806,-1.397Zm39.108,-58.073c4.41,0 8.674,-1.005 12.79,-3.014c4.117,-2.009 7.743,-4.778 10.88,-8.307c3.136,-3.528 5.636,-7.645 7.498,-12.349c1.862,-4.705 2.793,-9.753 2.793,-15.144c0,-7.743 -1.053,-14.922 -3.161,-21.538c-2.107,-6.616 -4.974,-12.374 -8.6,-17.275c-3.627,-4.901 -7.841,-8.748 -12.644,-11.541c-4.803,-2.793 -9.899,-4.19 -15.29,-4.19c-5.293,0 -9.875,1.103 -13.747,3.308c-3.871,2.205 -7.057,5.219 -9.556,9.042c-2.499,3.822 -4.337,8.331 -5.513,13.525c-1.176,5.195 -1.764,10.782 -1.764,16.761c0,7.155 0.882,13.82 2.646,19.995c1.764,6.174 4.239,11.541 7.424,16.098c3.186,4.558 7.008,8.135 11.468,10.733c4.46,2.597 9.385,3.896 14.776,3.896Z" style="fill-rule:nonzero;"/>
  <path d="M328.623,238.761l-31.463,0l0,-21.612c-3.724,2.842 -7.375,5.734 -10.953,8.674c-3.577,2.941 -7.449,5.636 -11.614,8.086c-4.166,2.451 -8.772,4.435 -13.82,5.955c-5.048,1.519 -10.904,2.278 -17.569,2.278c-6.175,0 -11.762,-1.004 -16.76,-3.013c-4.999,-2.01 -9.263,-4.779 -12.791,-8.307c-3.529,-3.529 -6.224,-7.694 -8.086,-12.497c-1.862,-4.802 -2.794,-9.997 -2.794,-15.584c0,-6.763 1.348,-12.864 4.044,-18.304c2.695,-5.44 6.37,-10.316 11.026,-14.629c4.656,-4.312 10.095,-8.135 16.319,-11.467c6.224,-3.333 12.816,-6.322 19.775,-8.968c6.958,-2.647 14.138,-4.999 21.538,-7.057c7.4,-2.059 14.629,-3.97 21.685,-5.734l0,-9.85c0,-7.155 -0.71,-13.208 -2.131,-18.157c-1.421,-4.95 -3.455,-8.944 -6.102,-11.983c-2.646,-3.038 -5.856,-5.219 -9.629,-6.542c-3.774,-1.323 -8.013,-1.985 -12.718,-1.985c-5.292,0 -9.605,0.686 -12.938,2.058c-3.332,1.373 -5.954,3.186 -7.865,5.44c-1.911,2.255 -3.21,4.827 -3.896,7.719c-0.686,2.891 -1.029,5.807 -1.029,8.747c0,2.745 -0.221,5.391 -0.662,7.94c-0.441,2.548 -1.25,4.778 -2.426,6.689c-1.176,1.911 -2.769,3.455 -4.778,4.631c-2.009,1.176 -4.582,1.764 -7.718,1.764c-2.451,0 -4.681,-0.465 -6.69,-1.396c-2.009,-0.931 -3.749,-2.23 -5.219,-3.896c-1.47,-1.667 -2.597,-3.627 -3.382,-5.881c-0.784,-2.254 -1.176,-4.705 -1.176,-7.351c0,-5.195 1.716,-10.047 5.146,-14.555c3.43,-4.509 8.037,-8.405 13.82,-11.688c5.783,-3.284 12.546,-5.881 20.289,-7.792c7.743,-1.912 15.878,-2.867 24.405,-2.867c10.39,0 19.162,1.004 26.317,3.014c7.155,2.009 12.938,4.827 17.348,8.453c4.411,3.627 7.596,8.037 9.556,13.232c1.961,5.195 2.941,10.929 2.941,17.202l0,119.233Zm-31.463,-92.035c-4.508,1.47 -9.188,3.137 -14.04,4.999c-4.852,1.862 -9.605,3.945 -14.261,6.248c-4.656,2.304 -9.091,4.803 -13.305,7.498c-4.215,2.696 -7.915,5.563 -11.1,8.601c-3.186,3.038 -5.71,6.273 -7.572,9.703c-1.862,3.431 -2.793,7.008 -2.793,10.733c0,3.822 0.71,7.473 2.132,10.953c1.421,3.479 3.308,6.518 5.66,9.115c2.352,2.598 5.072,4.656 8.159,6.175c3.088,1.519 6.298,2.279 9.63,2.279c3.529,0 6.886,-0.466 10.071,-1.397c3.186,-0.931 6.273,-2.181 9.262,-3.749c2.99,-1.568 5.979,-3.406 8.969,-5.513c2.989,-2.107 6.052,-4.337 9.188,-6.69l0,-58.955Z" style="fill-rule:nonzero;"/>
  <path d="M370.524,80.861l31.168,0l0,29.845c3.038,-4.41 6.322,-8.625 9.85,-12.643c3.529,-4.019 7.204,-7.547 11.027,-10.586c3.822,-3.038 7.767,-5.44 11.835,-7.204c4.068,-1.764 8.209,-2.646 12.423,-2.646c3.431,0 6.616,0.514 9.557,1.543c2.94,1.03 5.513,2.402 7.718,4.117c2.205,1.715 3.945,3.725 5.219,6.028c1.274,2.303 1.912,4.729 1.912,7.277c0,5.097 -1.593,8.944 -4.779,11.541c-3.185,2.598 -7.62,3.896 -13.305,3.896c-3.528,0 -6.346,-0.367 -8.454,-1.102c-2.107,-0.735 -4.018,-1.568 -5.733,-2.5c-1.716,-0.931 -3.455,-1.764 -5.22,-2.499c-1.764,-0.735 -3.969,-1.103 -6.616,-1.103c-2.058,0 -4.141,0.613 -6.248,1.838c-2.107,1.225 -4.214,2.941 -6.322,5.146c-2.107,2.205 -4.239,4.803 -6.395,7.792c-2.156,2.989 -4.313,6.248 -6.469,9.777l0,109.383l-31.168,0l0,-157.9Z" style="fill-rule:nonzero;"/>
  <path d="M524.16,238.761l-31.315,0l0,-229.793l22.347,-8.968l8.968,0l0,238.761Z" style="fill-rule:nonzero;"/>
  <path d="M579.145,0c2.451,0 4.779,0.417 6.984,1.25c2.205,0.833 4.117,1.96 5.734,3.381c1.617,1.421 2.916,3.088 3.896,4.999c0.98,1.911 1.47,3.945 1.47,6.101c0,2.156 -0.49,4.19 -1.47,6.102c-0.98,1.911 -2.279,3.577 -3.896,4.998c-1.617,1.421 -3.529,2.549 -5.734,3.382c-2.205,0.833 -4.533,1.249 -6.984,1.249c-2.45,0 -4.753,-0.416 -6.909,-1.249c-2.157,-0.833 -4.044,-1.961 -5.661,-3.382c-1.617,-1.421 -2.916,-3.087 -3.896,-4.998c-0.98,-1.912 -1.47,-3.946 -1.47,-6.102c0,-2.156 0.49,-4.19 1.47,-6.101c0.98,-1.911 2.279,-3.578 3.896,-4.999c1.617,-1.421 3.504,-2.548 5.661,-3.381c2.156,-0.833 4.459,-1.25 6.909,-1.25Zm-15.29,86.595l22.053,-8.968l9.116,0l0,161.134l-31.169,0l0,-152.166Z" style="fill-rule:nonzero;"/>
  <path d="M700.29,242.142c-10.291,0 -19.97,-2.033 -29.036,-6.101c-9.067,-4.067 -16.957,-9.63 -23.671,-16.687c-6.713,-7.057 -12.006,-15.339 -15.878,-24.846c-3.871,-9.507 -5.807,-19.652 -5.807,-30.433c0,-11.958 2.132,-23.181 6.395,-33.668c4.264,-10.487 10.12,-19.652 17.569,-27.493c7.449,-7.841 16.123,-14.016 26.023,-18.524c9.899,-4.509 20.534,-6.763 31.903,-6.763c8.821,0 16.957,0.955 24.406,2.867c7.449,1.911 13.869,4.557 19.259,7.939c5.391,3.381 9.606,7.375 12.644,11.982c3.038,4.607 4.558,9.556 4.558,14.849c0,2.352 -0.613,4.582 -1.838,6.689c-1.225,2.108 -2.818,3.945 -4.778,5.514c-1.961,1.568 -4.19,2.818 -6.69,3.749c-2.499,0.931 -5.023,1.396 -7.571,1.396c-2.843,0 -5.391,-0.514 -7.645,-1.543c-2.255,-1.03 -4.19,-2.353 -5.808,-3.97c-1.617,-1.617 -2.842,-3.455 -3.675,-5.513c-0.833,-2.058 -1.25,-4.166 -1.25,-6.322c0,-3.627 -0.392,-7.033 -1.176,-10.218c-0.784,-3.185 -2.156,-5.93 -4.116,-8.233c-1.961,-2.303 -4.656,-4.117 -8.087,-5.44c-3.43,-1.323 -7.792,-1.985 -13.084,-1.985c-7.155,0 -13.575,1.446 -19.26,4.337c-5.685,2.892 -10.488,6.788 -14.408,11.689c-3.921,4.9 -6.91,10.659 -8.968,17.274c-2.059,6.616 -3.088,13.649 -3.088,21.098c0,10.095 1.323,19.652 3.97,28.669c2.646,9.017 6.371,16.907 11.173,23.67c4.803,6.763 10.586,12.129 17.349,16.099c6.763,3.969 14.31,5.954 22.641,5.954c7.351,0 13.722,-1.151 19.113,-3.455c5.39,-2.303 10.07,-5.415 14.04,-9.336c3.97,-3.92 7.375,-8.478 10.218,-13.672c2.842,-5.195 5.391,-10.684 7.645,-16.467l9.409,3.823c-2.646,9.899 -6.224,18.769 -10.732,26.61c-4.509,7.842 -9.826,14.457 -15.952,19.848c-6.126,5.391 -13.036,9.507 -20.73,12.35c-7.694,2.842 -16.05,4.263 -25.067,4.263Z" style="fill-rule:nonzero;"/>
  <path d="M332.202,271.326l31.168,0l0,29.845c3.039,-4.41 6.322,-8.625 9.851,-12.644c3.528,-4.018 7.204,-7.547 11.026,-10.585c3.823,-3.038 7.768,-5.44 11.835,-7.204c4.068,-1.764 8.209,-2.646 12.424,-2.646c3.43,0 6.615,0.514 9.556,1.543c2.94,1.029 5.513,2.402 7.718,4.117c2.206,1.715 3.946,3.724 5.22,6.028c1.274,2.303 1.911,4.729 1.911,7.277c0,5.097 -1.593,8.944 -4.778,11.541c-3.186,2.598 -7.621,3.896 -13.306,3.896c-3.528,0 -6.346,-0.367 -8.453,-1.102c-2.108,-0.735 -4.019,-1.569 -5.734,-2.5c-1.715,-0.931 -3.455,-1.764 -5.219,-2.499c-1.764,-0.735 -3.97,-1.103 -6.616,-1.103c-2.058,0 -4.141,0.613 -6.249,1.838c-2.107,1.225 -4.214,2.94 -6.321,5.146c-2.108,2.205 -4.239,4.802 -6.396,7.792c-2.156,2.989 -4.312,6.248 -6.469,9.777l0,109.383l-31.168,0l0,-157.9Z" style="fill-rule:nonzero;"/>
  <path d="M526.416,432.607c-12.056,0 -23.205,-2.107 -33.447,-6.322c-10.243,-4.214 -19.064,-9.948 -26.464,-17.201c-7.4,-7.253 -13.183,-15.756 -17.348,-25.508c-4.166,-9.752 -6.249,-20.166 -6.249,-31.242c0,-11.663 2.083,-22.616 6.249,-32.859c4.165,-10.242 9.948,-19.161 17.348,-26.758c7.4,-7.596 16.221,-13.599 26.464,-18.01c10.242,-4.41 21.391,-6.615 33.447,-6.615c12.056,0 23.156,2.009 33.3,6.027c10.144,4.019 18.941,9.532 26.39,16.54c7.449,7.008 13.256,15.241 17.422,24.7c4.166,9.458 6.248,19.578 6.248,30.359c0,11.958 -2.082,23.205 -6.248,33.741c-4.166,10.537 -9.973,19.75 -17.422,27.64c-7.449,7.89 -16.246,14.114 -26.39,18.672c-10.144,4.557 -21.244,6.836 -33.3,6.836Zm5.881,-11.614c6.175,0 11.835,-1.593 16.981,-4.778c5.145,-3.186 9.605,-7.449 13.378,-12.791c3.774,-5.342 6.69,-11.59 8.748,-18.745c2.058,-7.155 3.088,-14.702 3.088,-22.641c0,-11.468 -0.981,-22.176 -2.941,-32.124c-1.96,-9.949 -5.146,-18.647 -9.556,-26.096c-4.411,-7.45 -10.145,-13.306 -17.202,-17.569c-7.057,-4.264 -15.731,-6.396 -26.022,-6.396c-5.293,0 -10.39,1.519 -15.29,4.558c-4.901,3.038 -9.238,7.204 -13.012,12.497c-3.773,5.292 -6.787,11.467 -9.041,18.524c-2.255,7.057 -3.382,14.555 -3.382,22.494c0,11.468 1.225,22.249 3.676,32.345c2.45,10.095 5.979,18.892 10.585,26.39c4.607,7.498 10.292,13.428 17.055,17.789c6.762,4.362 14.408,6.543 22.935,6.543Z" style="fill-rule:nonzero;"/>
  <path d="M706.957,432.607c-10.292,0 -19.97,-2.033 -29.037,-6.101c-9.066,-4.068 -16.956,-9.63 -23.67,-16.687c-6.714,-7.057 -12.007,-15.339 -15.878,-24.846c-3.872,-9.508 -5.807,-19.652 -5.807,-30.433c0,-11.958 2.131,-23.181 6.395,-33.668c4.264,-10.488 10.12,-19.652 17.569,-27.493c7.449,-7.841 16.123,-14.016 26.022,-18.525c9.9,-4.508 20.534,-6.762 31.904,-6.762c8.821,0 16.956,0.955 24.405,2.866c7.449,1.912 13.869,4.558 19.26,7.94c5.391,3.381 9.605,7.375 12.644,11.982c3.038,4.606 4.557,9.556 4.557,14.849c0,2.352 -0.612,4.582 -1.837,6.689c-1.226,2.107 -2.818,3.945 -4.779,5.513c-1.96,1.569 -4.19,2.818 -6.689,3.749c-2.499,0.932 -5.023,1.397 -7.572,1.397c-2.842,0 -5.39,-0.514 -7.645,-1.544c-2.254,-1.029 -4.19,-2.352 -5.807,-3.969c-1.617,-1.617 -2.842,-3.455 -3.675,-5.513c-0.834,-2.059 -1.25,-4.166 -1.25,-6.322c0,-3.627 -0.392,-7.033 -1.176,-10.218c-0.784,-3.186 -2.157,-5.93 -4.117,-8.233c-1.96,-2.304 -4.656,-4.117 -8.086,-5.44c-3.43,-1.323 -7.792,-1.985 -13.085,-1.985c-7.155,0 -13.575,1.446 -19.259,4.337c-5.685,2.892 -10.488,6.788 -14.408,11.688c-3.921,4.901 -6.91,10.659 -8.969,17.275c-2.058,6.616 -3.087,13.649 -3.087,21.098c0,10.095 1.323,19.651 3.969,28.669c2.647,9.017 6.371,16.907 11.174,23.67c4.803,6.763 10.585,12.129 17.348,16.099c6.763,3.969 14.31,5.954 22.642,5.954c7.351,0 13.721,-1.152 19.112,-3.455c5.391,-2.303 10.071,-5.415 14.041,-9.336c3.969,-3.92 7.375,-8.478 10.218,-13.673c2.842,-5.194 5.39,-10.683 7.645,-16.466l9.409,3.823c-2.647,9.899 -6.224,18.769 -10.733,26.61c-4.508,7.841 -9.825,14.457 -15.951,19.848c-6.126,5.391 -13.036,9.507 -20.73,12.35c-7.694,2.842 -16.05,4.263 -25.067,4.263Z" style="fill-rule:nonzero;"/>
  <path d="M840.157,334.986l79.244,-63.66l20.436,0l-70.717,57.338l87.477,100.562l-41.312,0l-75.128,-86.448l0,86.448l-31.315,0l0,-229.793l22.347,-8.968l8.968,0l0,144.521Z" style="fill-rule:nonzero;"/>
  <g>
    <path d="M182.934,452.623l0.031,0.092l0.801,2.907l0.468,1.703l0.497,1.813l0.519,1.902l0.128,0.469l0.25,1.484l0.335,1.996l0.337,2.027l0.336,2.037l0.034,0.209l0.054,0.799l0.066,1l0.064,0.994l0.063,0.984l0.02,0.311l-0.022,0.654l-0.032,0.947l-0.032,0.931l-0.034,0.914l-0.021,0.55l-0.049,0.338l-0.125,0.857l-0.124,0.833l-0.121,0.807l-0.119,0.779l-0.117,0.746l-0.089,0.565l-0.091,0.565l-0.092,0.567l-0.094,0.569l-0.095,0.57l-0.096,0.572l-0.098,0.573l-0.099,0.574l-0.1,0.575l-0.101,0.574l-0.103,0.575l-0.104,0.575l-0.105,0.574l-0.106,0.573l-0.108,0.572l-0.109,0.571l-0.109,0.569l-0.111,0.567l-0.112,0.565l-0.113,0.563l-0.114,0.56l-0.115,0.557l-0.116,0.554l-0.117,0.551l-0.118,0.547l-0.12,0.543l-0.12,0.539l-0.121,0.535l-0.122,0.53l-0.123,0.525l-0.124,0.521l-0.124,0.511l-0.112,0.454l-0.112,0.45l-0.113,0.452l-0.115,0.451l-0.116,0.453l-0.118,0.453l-0.12,0.453l-0.121,0.455l-0.123,0.454l-0.126,0.455l-0.126,0.456l-0.129,0.456l-0.131,0.456l-0.134,0.457l-0.135,0.456l-0.138,0.457l-0.14,0.457l-0.142,0.458l-0.146,0.457l-0.147,0.458l-0.151,0.457l-0.153,0.457l-0.156,0.458l-0.159,0.457l-0.162,0.457l-0.165,0.457l-0.168,0.457l-0.172,0.456l-0.174,0.456l-0.176,0.449l-0.093,0.234l-0.092,0.228l-0.092,0.227l-0.091,0.222l-0.404,0.981l-0.21,0.507l-0.215,0.517l-0.221,0.527l-0.225,0.537l-0.231,0.546l-0.236,0.554l-0.242,0.562l-0.247,0.569l-0.252,0.575l-0.257,0.581l-0.263,0.586l-0.266,0.586l-0.138,0.301l-0.138,0.298l-0.138,0.299l-0.141,0.299l-0.141,0.301l-0.143,0.301l-0.145,0.301l-0.146,0.302l-0.147,0.303l-0.149,0.303l-0.15,0.303l-0.152,0.304l-0.153,0.303l-0.155,0.304l-0.156,0.304l-0.158,0.304l-0.159,0.304l-0.161,0.304l-0.162,0.304l-0.165,0.304l-0.165,0.303l-0.168,0.303l-0.169,0.302l-0.171,0.303l-0.173,0.301l-0.174,0.301l-0.177,0.301l-0.178,0.299l-0.18,0.3l-0.182,0.298l-0.184,0.297l-0.187,0.297l-0.188,0.296l-0.19,0.294l-0.193,0.294l-0.19,0.286l-0.188,0.279l-0.185,0.272l-0.186,0.272l-0.187,0.272l-0.189,0.273l-0.191,0.273l-0.191,0.272l-0.194,0.273l-0.195,0.273l-0.196,0.272l-0.197,0.273l-0.2,0.273l-0.2,0.272l-0.202,0.272l-0.203,0.273l-0.205,0.271l-0.206,0.272l-0.208,0.272l-0.209,0.271l-0.211,0.271l-0.212,0.271l-0.213,0.27l-0.215,0.27l-0.216,0.269l-0.218,0.269l-0.219,0.269l-0.22,0.268l-0.222,0.267l-0.224,0.267l-0.224,0.267l-0.227,0.266l-0.227,0.265l-0.229,0.264l-0.231,0.264l-0.232,0.263l-0.233,0.263l-0.235,0.261l-0.236,0.261l-0.238,0.26l-0.239,0.259l-0.24,0.258l-0.242,0.258l-0.244,0.256l-0.245,0.255l-0.246,0.255l-0.248,0.253l-0.249,0.252l-0.251,0.252l-0.252,0.25l-0.254,0.248l-0.255,0.248l-0.257,0.247l-0.258,0.245l-0.26,0.244l-0.261,0.242l-0.263,0.242l-0.264,0.24l-0.266,0.238l-0.267,0.237l-0.269,0.236l-0.271,0.234l-0.272,0.232l-0.274,0.231l-0.276,0.23l-0.279,0.23l-0.283,0.229l-0.284,0.228l-0.285,0.225l-0.288,0.224l-0.289,0.222l-0.29,0.221l-0.292,0.219l-0.293,0.217l-0.295,0.216l-0.296,0.214l-0.297,0.213l-0.298,0.211l-0.299,0.209l-0.301,0.208l-0.301,0.206l-0.303,0.205l-0.303,0.203l-0.304,0.202l-0.305,0.199l-0.306,0.199l-0.306,0.196l-0.307,0.196l-0.307,0.193l-0.309,0.192l-0.308,0.19l-0.309,0.189l-0.309,0.186l-0.309,0.186l-0.31,0.183l-0.31,0.182l-0.31,0.18l-0.309,0.178l-0.31,0.177l-0.31,0.175l-0.31,0.173l-0.309,0.171l-0.309,0.169l-0.309,0.168l-0.309,0.166l-0.308,0.164l-0.307,0.162l-0.308,0.16l-0.306,0.159l-0.306,0.156l-0.305,0.154l-0.304,0.153l-0.304,0.15l-0.303,0.149l-0.302,0.146l-0.301,0.145l-0.3,0.142l-0.299,0.141l-0.298,0.138l-0.296,0.136l-0.296,0.135l-0.294,0.132l-0.294,0.129l-0.292,0.128l-0.29,0.126l-0.29,0.123l-0.288,0.121l-0.286,0.119l-0.295,0.12l-0.268,0.108l-0.277,0.108l-0.278,0.105l-0.277,0.102l-0.277,0.099l-0.277,0.096l-0.276,0.094l-0.276,0.091l-0.276,0.088l-0.276,0.086l-0.276,0.083l-0.275,0.081l-0.274,0.078l-0.275,0.077l-0.273,0.073l-0.274,0.072l-0.273,0.07l-0.272,0.068l-0.272,0.065l-0.272,0.064l-0.271,0.062l-0.27,0.059l-0.27,0.059l-0.269,0.056l-0.269,0.055l-0.268,0.053l-0.267,0.051l-0.267,0.05l-0.266,0.049l-0.266,0.047l-0.265,0.045l-0.264,0.044l-0.263,0.043l-0.263,0.042l-0.262,0.04l-0.112,0.017l-0.149,0.023l-0.261,0.038l-0.26,0.037l-0.259,0.036l-0.258,0.034l-0.257,0.034l-0.263,0.034l-0.504,0.063l-0.507,0.059l-0.503,0.057l-0.499,0.054l-0.496,0.052l-0.491,0.049l-0.487,0.048l-0.483,0.045l-0.481,0.045l-0.94,0.085l-0.478,0.042l-0.483,0.041l-0.486,0.04l-0.49,0.038l-0.493,0.037l-0.498,0.036l-0.501,0.033l-0.504,0.032l-0.509,0.029l-0.512,0.027l-0.516,0.023l-0.513,0.021l-0.267,0.01l-0.262,0.008l-0.263,0.008l-0.264,0.007l-0.265,0.006l-0.266,0.005l-0.267,0.004l-0.267,0.003l-0.269,0.002l-0.269,0.002l-0.271,0l-0.271,-0.001l-0.272,-0.002l-0.273,-0.004l-0.274,-0.004l-0.275,-0.006l-0.276,-0.007l-0.276,-0.008l-0.278,-0.009l-0.278,-0.011l-0.28,-0.011l-0.28,-0.014l-0.281,-0.015l-0.281,-0.016l-0.283,-0.017l-0.284,-0.019l-0.284,-0.021l-0.285,-0.022l-0.286,-0.023l-0.287,-0.026l-0.288,-0.026l-0.288,-0.029l-0.289,-0.03l-0.29,-0.032l-0.291,-0.033l-0.292,-0.035l-0.292,-0.037l-0.293,-0.039l-0.294,-0.041l-0.29,-0.042l-0.244,-0.036l-0.239,-0.037l-0.238,-0.037l-0.245,-0.039l-0.463,-0.077l-0.466,-0.08l-0.463,-0.084l-0.458,-0.086l-0.454,-0.089l-0.45,-0.091l-0.446,-0.094l-0.442,-0.096l-0.437,-0.099l-0.434,-0.101l-0.429,-0.103l-0.426,-0.106l-0.242,-0.062l-0.179,-0.046l-0.414,-0.109l-0.315,-0.085l-0.309,-0.086l-0.306,-0.086l-0.305,-0.088l-0.302,-0.089l-0.3,-0.09l-0.298,-0.091l-0.295,-0.092l-0.293,-0.093l-0.291,-0.094l-0.288,-0.095l-0.286,-0.096l-0.284,-0.097l-0.282,-0.097l-0.279,-0.099l-0.281,-0.101l-0.364,-0.133l-0.364,-0.136l-0.359,-0.137l-0.356,-0.139l-0.351,-0.14l-0.347,-0.141l-0.344,-0.142l-0.339,-0.143l-0.335,-0.144l-0.331,-0.146l-0.328,-0.146l-0.323,-0.147l-0.319,-0.147l-0.315,-0.148l-0.312,-0.149l-0.307,-0.15l-0.303,-0.15l-0.3,-0.15l-0.295,-0.151l-0.292,-0.151l-0.287,-0.152l-0.284,-0.151l-0.279,-0.152l-0.276,-0.152l-0.272,-0.152l-0.268,-0.151l-0.264,-0.152l-0.26,-0.151l-0.257,-0.151l-0.252,-0.15l-0.248,-0.151l-0.244,-0.149l-0.247,-0.152l-0.262,-0.164l-0.278,-0.175l-0.298,-0.189l-0.629,-0.401l-0.686,-0.44l-0.726,-0.47l-0.755,-0.49l-0.771,-0.504l-0.774,-0.508l-0.765,-0.505l-0.742,-0.493l-0.704,-0.471l-0.34,-0.229l-0.325,-0.219l-0.311,-0.212l-0.296,-0.202l-0.281,-0.194l-0.266,-0.185l-0.253,-0.178l-0.244,-0.174l-0.242,-0.177l-0.178,-0.135l-0.008,-0.006l-2.225,-2.515l-1.06,-3.085l0.168,-3.258l1.444,-3.031l0.013,-0.016l2.515,-2.225l3.085,-1.06l3.258,0.168l3.031,1.445l0.008,0.006l0.078,0.058l0.071,0.052l0.123,0.088l0.164,0.115l0.197,0.137l0.225,0.156l0.251,0.171l0.272,0.185l0.291,0.197l0.305,0.205l0.662,0.443l0.7,0.465l0.728,0.48l0.74,0.486l0.737,0.482l0.72,0.468l0.688,0.444l0.641,0.412l0.581,0.37l0.255,0.162l0.236,0.148l0.209,0.131l0.179,0.111l0.166,0.101l0.168,0.102l0.171,0.102l0.173,0.102l0.176,0.102l0.178,0.102l0.181,0.102l0.183,0.103l0.186,0.102l0.188,0.102l0.192,0.102l0.194,0.102l0.196,0.103l0.2,0.101l0.202,0.102l0.205,0.102l0.208,0.101l0.211,0.101l0.214,0.1l0.217,0.101l0.22,0.1l0.223,0.099l0.226,0.099l0.229,0.099l0.232,0.098l0.236,0.097l0.238,0.097l0.242,0.096l0.245,0.096l0.249,0.095l0.251,0.094l0.259,0.095l0.189,0.068l0.195,0.068l0.196,0.068l0.198,0.068l0.201,0.067l0.202,0.067l0.204,0.066l0.206,0.065l0.208,0.065l0.21,0.064l0.213,0.064l0.214,0.063l0.216,0.062l0.219,0.062l0.22,0.061l0.219,0.059l0.302,0.08l0.129,0.033l0.174,0.044l0.306,0.076l0.311,0.075l0.314,0.073l0.317,0.072l0.322,0.07l0.326,0.069l0.33,0.067l0.333,0.065l0.338,0.063l0.342,0.062l0.346,0.06l0.357,0.059l0.169,0.027l0.178,0.028l0.179,0.027l0.175,0.026l0.2,0.029l0.197,0.027l0.196,0.026l0.196,0.025l0.197,0.024l0.196,0.023l0.197,0.021l0.197,0.021l0.197,0.019l0.197,0.019l0.198,0.017l0.198,0.016l0.198,0.015l0.198,0.015l0.199,0.013l0.199,0.012l0.199,0.012l0.199,0.01l0.2,0.01l0.2,0.008l0.2,0.008l0.2,0.007l0.201,0.006l0.202,0.005l0.201,0.004l0.202,0.003l0.202,0.002l0.203,0.002l0.203,0.001l0.204,0l0.203,-0.001l0.205,-0.002l0.204,-0.002l0.205,-0.004l0.205,-0.003l0.206,-0.005l0.206,-0.005l0.207,-0.006l0.207,-0.007l0.201,-0.007l0.423,-0.018l0.418,-0.019l0.42,-0.022l0.422,-0.024l0.423,-0.026l0.426,-0.029l0.427,-0.03l0.429,-0.033l0.432,-0.034l0.433,-0.035l0.435,-0.037l0.438,-0.039l0.901,-0.081l0.443,-0.041l0.441,-0.042l0.438,-0.042l0.434,-0.044l0.43,-0.044l0.425,-0.047l0.421,-0.047l0.416,-0.049l0.418,-0.052l0.197,-0.025l0.203,-0.027l0.2,-0.027l0.2,-0.028l0.198,-0.028l0.197,-0.029l0.111,-0.017l0.084,-0.012l0.194,-0.03l0.192,-0.031l0.19,-0.031l0.189,-0.031l0.188,-0.032l0.185,-0.033l0.184,-0.034l0.182,-0.034l0.181,-0.035l0.178,-0.035l0.177,-0.036l0.175,-0.037l0.173,-0.037l0.172,-0.038l0.169,-0.038l0.167,-0.04l0.166,-0.039l0.163,-0.041l0.161,-0.041l0.159,-0.042l0.157,-0.042l0.155,-0.043l0.153,-0.044l0.151,-0.044l0.148,-0.045l0.146,-0.046l0.144,-0.046l0.142,-0.046l0.139,-0.047l0.137,-0.048l0.135,-0.048l0.132,-0.049l0.13,-0.049l0.128,-0.05l0.135,-0.054l0.197,-0.08l0.208,-0.087l0.212,-0.089l0.214,-0.091l0.217,-0.094l0.22,-0.096l0.222,-0.099l0.224,-0.1l0.227,-0.103l0.229,-0.105l0.231,-0.107l0.232,-0.109l0.235,-0.112l0.235,-0.113l0.238,-0.115l0.239,-0.117l0.24,-0.12l0.242,-0.12l0.242,-0.123l0.244,-0.125l0.244,-0.126l0.245,-0.128l0.246,-0.13l0.247,-0.131l0.247,-0.132l0.247,-0.135l0.248,-0.136l0.248,-0.137l0.248,-0.138l0.248,-0.14l0.248,-0.142l0.248,-0.142l0.247,-0.144l0.247,-0.145l0.247,-0.146l0.246,-0.148l0.246,-0.148l0.244,-0.149l0.244,-0.151l0.243,-0.151l0.242,-0.152l0.24,-0.153l0.24,-0.154l0.238,-0.154l0.237,-0.155l0.235,-0.156l0.233,-0.157l0.232,-0.156l0.23,-0.158l0.228,-0.157l0.226,-0.159l0.224,-0.158l0.222,-0.159l0.219,-0.158l0.217,-0.159l0.214,-0.159l0.212,-0.159l0.209,-0.159l0.207,-0.159l0.203,-0.158l0.2,-0.158l0.197,-0.158l0.194,-0.157l0.192,-0.158l0.192,-0.16l0.192,-0.162l0.193,-0.165l0.192,-0.166l0.192,-0.169l0.192,-0.17l0.192,-0.172l0.192,-0.174l0.191,-0.176l0.192,-0.177l0.19,-0.18l0.191,-0.181l0.19,-0.182l0.19,-0.185l0.19,-0.186l0.189,-0.187l0.189,-0.189l0.188,-0.191l0.188,-0.192l0.188,-0.194l0.187,-0.195l0.187,-0.196l0.186,-0.198l0.185,-0.199l0.185,-0.201l0.184,-0.201l0.184,-0.203l0.183,-0.204l0.183,-0.206l0.182,-0.206l0.181,-0.208l0.041,-0.046l0.14,-0.162l0.18,-0.21l0.179,-0.211l0.179,-0.211l0.177,-0.213l0.177,-0.213l0.177,-0.214l0.175,-0.216l0.175,-0.216l0.174,-0.216l0.173,-0.218l0.172,-0.218l0.171,-0.219l0.171,-0.219l0.169,-0.22l0.169,-0.221l0.168,-0.221l0.167,-0.221l0.166,-0.222l0.165,-0.223l0.164,-0.223l0.163,-0.223l0.162,-0.223l0.161,-0.224l0.16,-0.224l0.159,-0.224l0.158,-0.225l0.157,-0.224l0.156,-0.225l0.154,-0.225l0.154,-0.225l0.152,-0.225l0.147,-0.217l0.132,-0.199l0.128,-0.195l0.128,-0.198l0.129,-0.202l0.128,-0.205l0.129,-0.208l0.129,-0.211l0.129,-0.214l0.129,-0.217l0.129,-0.219l0.128,-0.222l0.129,-0.225l0.129,-0.227l0.128,-0.229l0.128,-0.232l0.128,-0.234l0.127,-0.236l0.128,-0.238l0.127,-0.239l0.126,-0.242l0.126,-0.243l0.126,-0.245l0.125,-0.246l0.125,-0.247l0.125,-0.249l0.124,-0.25l0.123,-0.252l0.123,-0.252l0.122,-0.253l0.122,-0.254l0.04,-0.085l0.081,-0.17l0.12,-0.256l0.12,-0.256l0.12,-0.257l0.118,-0.257l0.116,-0.253l0.237,-0.52l0.231,-0.516l0.229,-0.516l0.225,-0.516l0.223,-0.513l0.22,-0.512l0.217,-0.509l0.214,-0.506l0.211,-0.502l0.208,-0.497l0.205,-0.493l0.201,-0.486l0.393,-0.952l0.072,-0.175l0.069,-0.171l0.069,-0.171l0.065,-0.165l0.138,-0.353l0.134,-0.349l0.132,-0.351l0.131,-0.355l0.129,-0.357l0.127,-0.36l0.127,-0.363l0.124,-0.365l0.123,-0.368l0.122,-0.37l0.12,-0.373l0.12,-0.375l0.117,-0.378l0.117,-0.38l0.115,-0.383l0.114,-0.384l0.113,-0.387l0.024,-0.083l0.088,-0.306l0.11,-0.392l0.11,-0.393l0.109,-0.395l0.107,-0.398l0.107,-0.399l0.106,-0.401l0.105,-0.403l0.104,-0.405l0.103,-0.407l0.103,-0.408l0.102,-0.41l0.1,-0.408l0.109,-0.45l0.109,-0.454l0.108,-0.461l0.108,-0.469l0.107,-0.476l0.108,-0.483l0.107,-0.489l0.107,-0.494l0.106,-0.5l0.106,-0.505l0.105,-0.51l0.105,-0.514l0.104,-0.519l0.104,-0.522l0.102,-0.525l0.102,-0.528l0.101,-0.531l0.1,-0.534l0.054,-0.287l0.046,-0.248l0.098,-0.537l0.097,-0.538l0.097,-0.539l0.095,-0.54l0.094,-0.541l0.094,-0.54l0.092,-0.54l0.09,-0.54l0.09,-0.538l0.088,-0.537l0.087,-0.536l0.003,-0.015l0.083,-0.519l0.084,-0.528l0.109,-0.7l0.112,-0.733l0.116,-0.766l0.118,-0.798l0.121,-0.826l0.047,-0.327l0.132,-0.516l0.22,-0.861l0.223,-0.881l0.226,-0.899l0.156,-0.623l0.103,-0.288l0.324,-0.914l0.326,-0.926l0.329,-0.933l0.261,-0.745l0.088,-0.19l0.856,-1.86l0.851,-1.854l0.836,-1.831l0.621,-1.363l0.243,-0.418l0.986,-1.702l0.938,-1.623l0.882,-1.528l1.505,-2.612l0.053,-0.081l1.581,-1.223l1.223,1.581Z"/>
    <path d="M264.174,322.567l1.885,0.396l1.793,0.705l1.649,0.995l1.461,1.256l0.013,0.013l1.179,1.41l0.94,1.58l0.676,1.709l0.395,1.795l0.104,1.836l-0.19,1.828l-2.735,14.74l7.043,0.732l1.914,0.364l1.825,0.683l1.683,0.98l1.493,1.251l1.261,1.485l0.993,1.676l0.695,1.82l0.378,1.911l0.05,1.948l-0.28,1.928l-0.601,1.853l-0.904,1.725l-0.216,0.337l-0.252,0.391l-0.269,0.414l-0.287,0.439l-0.305,0.463l-0.321,0.489l-0.687,1.041l-0.744,1.126l-0.789,1.197l-0.406,0.618l-0.414,0.631l-0.42,0.641l-0.423,0.649l-0.426,0.655l-0.426,0.659l-0.426,0.661l-0.424,0.661l-0.419,0.659l-0.415,0.655l-0.41,0.653l-0.198,0.317l-0.198,0.318l-0.195,0.316l-0.193,0.312l-0.189,0.31l-0.186,0.305l-0.183,0.301l-0.179,0.297l-0.175,0.292l-0.171,0.287l-0.166,0.281l-0.161,0.275l-0.156,0.269l-0.151,0.262l-0.146,0.254l-0.139,0.247l-0.134,0.238l-0.129,0.234l-0.117,0.214l-0.119,0.219l-0.119,0.222l-0.12,0.225l-0.12,0.226l-0.12,0.228l-0.12,0.231l-0.12,0.232l-0.12,0.234l-0.12,0.236l-0.121,0.237l-0.12,0.239l-0.12,0.241l-0.12,0.241l-0.119,0.243l-0.117,0.239l-0.242,0.498l-0.237,0.497l-0.237,0.5l-0.235,0.502l-0.234,0.505l-0.232,0.507l-0.23,0.508l-0.228,0.509l-0.226,0.508l-0.224,0.508l-0.221,0.508l-0.219,0.505l-0.215,0.504l-0.213,0.5l-0.21,0.498l-0.207,0.494l-0.204,0.49l-0.2,0.485l-0.197,0.48l-0.193,0.474l-0.189,0.467l-0.186,0.461l-0.181,0.454l-0.174,0.437l-0.135,0.343l-0.129,0.333l-0.128,0.334l-0.125,0.333l-0.124,0.334l-0.122,0.334l-0.121,0.334l-0.119,0.336l-0.117,0.336l-0.117,0.338l-0.115,0.339l-0.114,0.341l-0.113,0.342l-0.112,0.344l-0.111,0.347l-0.11,0.348l-0.11,0.351l-0.109,0.354l-0.108,0.356l-0.108,0.359l-0.107,0.362l-0.107,0.366l-0.107,0.369l-0.106,0.372l-0.107,0.376l-0.106,0.38l-0.106,0.384l-0.107,0.387l-0.106,0.392l-0.107,0.397l-0.107,0.4l-0.103,0.392l-0.045,0.172l-0.042,0.164l-0.042,0.17l-0.042,0.176l-0.043,0.181l-0.042,0.186l-0.043,0.191l-0.043,0.196l-0.042,0.2l-0.043,0.204l-0.043,0.209l-0.042,0.213l-0.042,0.216l-0.043,0.22l-0.042,0.224l-0.041,0.226l-0.042,0.23l-0.041,0.233l-0.042,0.236l-0.04,0.239l-0.041,0.241l-0.039,0.237l-0.081,0.501l-0.079,0.503l-0.077,0.509l-0.076,0.516l-0.076,0.521l-0.074,0.526l-0.073,0.529l-0.072,0.532l-0.071,0.534l-0.07,0.536l-0.07,0.533l-0.137,1.075l-0.135,1.064l-0.134,1.053l-0.134,1.031l-0.068,0.516l-0.066,0.492l-0.109,0.819l-0.106,0.802l-0.103,0.799l-0.101,0.795l-0.098,0.798l-0.046,0.39l-0.047,0.395l-0.046,0.393l-0.044,0.393l-0.044,0.392l-0.043,0.391l-0.042,0.39l-0.041,0.39l-0.04,0.388l-0.039,0.388l-0.037,0.387l-0.037,0.387l-0.035,0.385l-0.035,0.385l-0.033,0.384l-0.032,0.383l-0.03,0.382l-0.03,0.381l-0.028,0.381l-0.027,0.38l-0.025,0.379l-0.024,0.377l-0.025,0.406l-0.023,0.41l-0.022,0.416l-0.021,0.42l-0.019,0.425l-0.019,0.43l-0.018,0.434l-0.016,0.438l-0.016,0.442l-0.014,0.446l-0.014,0.449l-0.013,0.452l-0.012,0.455l-0.011,0.458l-0.01,0.46l-0.01,0.463l-0.008,0.465l-0.008,0.463l-0.015,0.944l-0.012,0.944l-0.01,0.949l-0.009,0.951l-0.008,0.951l-0.013,1.902l-0.005,0.956l-0.005,0.957l-0.003,0.958l-0.001,0.959l0.001,0.96l0.002,0.96l0.005,0.959l0.007,0.959l0.01,0.958l0.012,0.96l0.007,0.474l0.008,0.477l0.008,0.476l0.009,0.476l0.011,0.474l0.01,0.475l0.012,0.473l0.013,0.472l0.013,0.472l0.015,0.47l0.015,0.47l0.016,0.463l0.017,0.471l0.02,0.473l0.021,0.481l0.023,0.488l0.025,0.494l0.026,0.499l0.028,0.505l0.029,0.51l0.03,0.514l0.031,0.514l0.066,1.051l0.069,1.054l0.071,1.061l0.143,2.128l0.071,1.06l0.069,1.055l0.066,1.04l0.032,0.522l0.03,0.516l0.029,0.512l0.028,0.509l0.027,0.505l0.024,0.495l0.039,0.833l0.038,0.832l0.037,0.838l0.036,0.841l0.035,0.843l0.034,0.846l0.031,0.847l0.031,0.847l0.028,0.846l0.026,0.844l0.024,0.842l0.022,0.838l0.019,0.834l0.016,0.829l0.013,0.823l0.011,0.802l0.008,0.728l0.009,0.723l0.009,0.733l0.008,0.743l0.007,0.754l0.005,0.758l0.002,0.39l0.001,0.388l-0.001,0.391l-0.001,0.393l-0.002,0.396l-0.003,0.398l-0.005,0.401l-0.006,0.403l-0.008,0.406l-0.009,0.409l-0.011,0.41l-0.013,0.414l-0.014,0.415l-0.017,0.419l-0.019,0.42l-0.021,0.423l-0.024,0.426l-0.026,0.428l-0.029,0.43l-0.031,0.422l-0.07,0.898l-0.073,0.916l-0.04,0.477l-0.041,0.48l-0.042,0.488l-0.044,0.494l-0.046,0.501l-0.047,0.506l-0.05,0.513l-0.052,0.517l-0.053,0.523l-0.056,0.527l-0.058,0.532l-0.06,0.535l-0.063,0.54l-0.065,0.542l-0.068,0.546l-0.071,0.548l-0.073,0.551l-0.076,0.554l-0.08,0.555l-0.082,0.557l-0.086,0.558l-0.088,0.551l-0.047,0.288l-0.047,0.28l-0.047,0.281l-0.049,0.281l-0.05,0.281l-0.05,0.281l-0.052,0.281l-0.053,0.281l-0.053,0.281l-0.055,0.281l-0.056,0.282l-0.058,0.284l-0.118,0.568l-0.122,0.576l-0.126,0.58l-0.13,0.583l-0.133,0.587l-0.136,0.591l-0.14,0.593l-0.144,0.596l-0.146,0.598l-0.149,0.601l-0.153,0.602l-0.155,0.604l-0.158,0.604l-0.161,0.606l-0.163,0.606l-0.166,0.606l-0.168,0.605l-0.171,0.606l-0.173,0.604l-0.175,0.603l-0.177,0.602l-0.179,0.599l-0.181,0.598l-0.183,0.595l-0.185,0.592l-0.186,0.589l-0.188,0.585l-0.19,0.582l-0.192,0.577l-0.193,0.573l-0.194,0.569l-0.195,0.56l-0.184,0.523l-0.186,0.52l-0.188,0.52l-0.19,0.521l-0.193,0.52l-0.195,0.521l-0.199,0.522l-0.2,0.521l-0.204,0.522l-0.206,0.522l-0.209,0.521l-0.213,0.522l-0.215,0.522l-0.218,0.522l-0.221,0.521l-0.224,0.522l-0.227,0.521l-0.23,0.521l-0.234,0.521l-0.237,0.52l-0.24,0.52l-0.244,0.52l-0.244,0.511l-0.128,0.267l-0.126,0.26l-0.127,0.259l-0.128,0.259l-0.128,0.259l-0.13,0.258l-0.13,0.259l-0.131,0.258l-0.132,0.258l-0.134,0.258l-0.134,0.258l-0.135,0.258l-0.136,0.257l-0.137,0.258l-0.138,0.257l-0.139,0.256l-0.14,0.257l-0.143,0.26l-0.279,0.503l-0.286,0.509l-0.289,0.509l-0.293,0.511l-0.297,0.511l-0.301,0.512l-0.305,0.513l-0.308,0.514l-0.312,0.514l-0.316,0.514l-0.32,0.514l-0.324,0.515l-0.327,0.514l-0.327,0.508l-0.171,0.263l-0.168,0.257l-0.169,0.257l-0.17,0.256l-0.17,0.257l-0.172,0.256l-0.173,0.256l-0.173,0.256l-0.174,0.256l-0.176,0.255l-0.176,0.255l-0.177,0.255l-0.179,0.255l-0.179,0.255l-0.18,0.254l-0.181,0.253l-0.182,0.254l-0.183,0.253l-0.183,0.253l-0.185,0.252l-0.186,0.252l-0.187,0.251l-0.187,0.251l-0.189,0.251l-0.189,0.25l-0.191,0.25l-0.191,0.249l-0.193,0.249l-0.193,0.248l-0.194,0.247l-0.196,0.248l-0.196,0.246l-0.197,0.246l-0.198,0.245l-0.2,0.245l-0.199,0.242l-0.197,0.24l-0.198,0.237l-0.199,0.238l-0.199,0.237l-0.201,0.237l-0.201,0.236l-0.203,0.236l-0.203,0.236l-0.204,0.236l-0.206,0.235l-0.206,0.235l-0.207,0.234l-0.208,0.234l-0.208,0.233l-0.21,0.234l-0.21,0.232l-0.212,0.232l-0.212,0.232l-0.213,0.231l-0.214,0.231l-0.214,0.231l-0.216,0.229l-0.216,0.23l-0.217,0.228l-0.218,0.229l-0.218,0.227l-0.22,0.227l-0.22,0.227l-0.221,0.226l-0.221,0.225l-0.223,0.224l-0.223,0.224l-0.224,0.224l-0.224,0.223l-0.225,0.222l-0.226,0.221l-0.227,0.221l-0.227,0.22l-0.228,0.219l-0.229,0.218l-0.229,0.218l-0.23,0.217l-0.23,0.216l-0.232,0.216l-0.231,0.214l-0.233,0.214l-0.233,0.213l-0.234,0.212l-0.234,0.211l-0.235,0.211l-0.236,0.209l-0.236,0.209l-0.237,0.208l-0.237,0.206l-0.238,0.206l-0.238,0.205l-0.24,0.204l-0.239,0.203l-0.24,0.202l-0.241,0.201l-0.242,0.2l-0.242,0.199l-0.242,0.198l-0.242,0.196l-0.237,0.191l-0.237,0.189l-0.238,0.189l-0.239,0.188l-0.24,0.187l-0.24,0.187l-0.242,0.186l-0.242,0.186l-0.243,0.185l-0.243,0.184l-0.245,0.183l-0.245,0.183l-0.246,0.182l-0.247,0.182l-0.248,0.18l-0.248,0.18l-0.249,0.179l-0.25,0.179l-0.251,0.178l-0.251,0.177l-0.252,0.176l-0.253,0.175l-0.253,0.175l-0.254,0.173l-0.255,0.173l-0.255,0.172l-0.256,0.172l-0.257,0.17l-0.257,0.17l-0.258,0.168l-0.259,0.168l-0.259,0.167l-0.26,0.166l-0.261,0.165l-0.261,0.164l-0.261,0.163l-0.263,0.163l-0.262,0.161l-0.264,0.16l-0.264,0.16l-0.264,0.158l-0.265,0.158l-0.266,0.156l-0.266,0.155l-0.267,0.155l-0.267,0.153l-0.268,0.152l-0.269,0.151l-0.268,0.15l-0.27,0.149l-0.27,0.148l-0.27,0.147l-0.271,0.145l-0.271,0.145l-0.272,0.143l-0.273,0.142l-0.273,0.141l-0.273,0.139l-0.274,0.139l-0.274,0.137l-0.275,0.136l-0.276,0.135l-0.275,0.133l-0.279,0.134l-0.28,0.132l-0.282,0.131l-0.282,0.13l-0.282,0.128l-0.283,0.126l-0.282,0.124l-0.282,0.123l-0.282,0.121l-0.283,0.119l-0.282,0.117l-0.282,0.116l-0.281,0.114l-0.282,0.113l-0.282,0.111l-0.281,0.11l-0.281,0.108l-0.281,0.106l-0.281,0.105l-0.281,0.104l-0.28,0.102l-0.28,0.1l-0.28,0.1l-0.279,0.098l-0.28,0.096l-0.279,0.096l-0.278,0.094l-0.279,0.092l-0.278,0.092l-0.278,0.09l-0.277,0.089l-0.277,0.088l-0.277,0.086l-0.276,0.086l-0.276,0.084l-0.275,0.083l-0.275,0.082l-0.274,0.081l-0.275,0.08l-0.273,0.079l-0.281,0.08l-0.537,0.151l-0.543,0.149l-0.54,0.145l-0.539,0.142l-0.536,0.138l-0.534,0.135l-0.531,0.132l-0.529,0.129l-0.526,0.127l-0.523,0.123l-0.521,0.121l-0.524,0.12l-0.537,0.121l-0.544,0.119l-0.546,0.116l-0.547,0.114l-0.547,0.111l-0.549,0.107l-0.55,0.105l-0.551,0.102l-0.552,0.099l-0.552,0.096l-0.554,0.093l-0.554,0.09l-0.556,0.087l-0.556,0.084l-0.557,0.081l-0.558,0.078l-0.558,0.074l-0.559,0.072l-0.56,0.068l-0.56,0.065l-0.561,0.062l-0.562,0.058l-0.562,0.055l-0.563,0.052l-0.554,0.048l-0.29,0.023l-0.282,0.022l-0.282,0.022l-0.282,0.02l-0.282,0.02l-0.283,0.018l-0.282,0.018l-0.282,0.017l-0.283,0.016l-0.282,0.015l-0.283,0.014l-0.283,0.014l-0.282,0.012l-0.284,0.012l-0.303,0.011l-0.302,0.011l-0.302,0.009l-0.301,0.008l-0.3,0.007l-0.299,0.006l-0.298,0.005l-0.298,0.004l-0.296,0.003l-0.296,0.002l-0.295,0.001l-0.294,-0.001l-0.293,-0.001l-0.293,-0.002l-0.292,-0.003l-0.29,-0.004l-0.29,-0.004l-0.289,-0.006l-0.288,-0.007l-0.288,-0.007l-0.286,-0.008l-0.294,-0.01l-0.561,-0.02l-0.565,-0.024l-0.562,-0.028l-0.559,-0.03l-0.555,-0.033l-0.552,-0.036l-0.548,-0.038l-0.546,-0.041l-0.542,-0.044l-0.538,-0.045l-0.535,-0.048l-0.532,-0.051l-0.529,-0.052l-0.526,-0.054l-0.522,-0.056l-0.519,-0.057l-0.515,-0.059l-0.513,-0.061l-0.509,-0.062l-0.507,-0.063l-0.505,-0.065l-0.489,-0.064l-0.493,-0.066l-0.494,-0.069l-0.495,-0.07l-0.497,-0.073l-0.499,-0.076l-0.5,-0.077l-0.501,-0.081l-0.503,-0.082l-0.503,-0.086l-0.506,-0.088l-0.506,-0.091l-0.507,-0.094l-0.509,-0.098l-0.51,-0.1l-0.511,-0.103l-0.512,-0.107l-0.513,-0.11l-0.514,-0.114l-0.514,-0.117l-0.507,-0.119l-0.267,-0.064l-0.259,-0.063l-0.258,-0.064l-0.259,-0.065l-0.259,-0.065l-0.259,-0.067l-0.259,-0.068l-0.26,-0.069l-0.259,-0.07l-0.26,-0.071l-0.26,-0.072l-0.26,-0.073l-0.26,-0.074l-0.261,-0.075l-0.26,-0.077l-0.261,-0.077l-0.26,-0.079l-0.261,-0.08l-0.261,-0.081l-0.261,-0.082l-0.261,-0.083l-0.261,-0.085l-0.263,-0.086l-0.263,-0.088l-0.262,-0.088l-0.263,-0.089l-0.261,-0.091l-0.262,-0.091l-0.261,-0.092l-0.262,-0.094l-0.26,-0.094l-0.261,-0.095l-0.26,-0.096l-0.26,-0.097l-0.26,-0.098l-0.259,-0.098l-0.259,-0.1l-0.258,-0.1l-0.259,-0.101l-0.258,-0.102l-0.257,-0.103l-0.266,-0.106l-0.505,-0.206l-0.511,-0.213l-0.511,-0.215l-0.508,-0.218l-0.507,-0.22l-0.504,-0.223l-0.503,-0.226l-0.501,-0.228l-0.499,-0.231l-0.496,-0.232l-0.494,-0.235l-0.492,-0.237l-0.489,-0.239l-0.486,-0.24l-0.484,-0.243l-0.481,-0.244l-0.478,-0.245l-0.475,-0.247l-0.472,-0.249l-0.468,-0.25l-0.466,-0.251l-0.465,-0.255l-0.462,-0.256l-0.463,-0.26l-0.461,-0.263l-0.458,-0.266l-0.456,-0.268l-0.453,-0.27l-0.451,-0.272l-0.449,-0.275l-0.446,-0.277l-0.444,-0.279l-0.441,-0.281l-0.439,-0.283l-0.437,-0.285l-0.434,-0.287l-0.432,-0.289l-0.43,-0.29l-0.428,-0.293l-0.425,-0.294l-0.423,-0.295l-0.421,-0.297l-0.419,-0.299l-0.416,-0.3l-0.415,-0.302l-0.412,-0.303l-0.41,-0.305l-0.408,-0.305l-0.406,-0.307l-0.403,-0.309l-0.402,-0.309l-0.399,-0.31l-0.398,-0.312l-0.395,-0.313l-0.443,-0.353l-0.447,-0.359l-0.45,-0.364l-0.454,-0.37l-0.456,-0.376l-0.459,-0.38l-0.462,-0.386l-0.464,-0.39l-0.467,-0.395l-0.468,-0.4l-0.47,-0.404l-0.471,-0.408l-0.472,-0.411l-0.474,-0.416l-0.474,-0.419l-0.474,-0.423l-0.475,-0.426l-0.474,-0.429l-0.475,-0.432l-0.473,-0.434l-0.473,-0.438l-0.472,-0.439l-0.47,-0.442l-0.469,-0.444l-0.467,-0.446l-0.465,-0.447l-0.463,-0.449l-0.46,-0.451l-0.457,-0.452l-0.454,-0.453l-0.452,-0.455l-0.443,-0.451l-0.233,-0.239l-0.229,-0.237l-0.229,-0.237l-0.228,-0.239l-0.228,-0.239l-0.227,-0.241l-0.226,-0.241l-0.226,-0.241l-0.226,-0.243l-0.224,-0.243l-0.225,-0.244l-0.228,-0.249l-0.441,-0.485l-0.443,-0.492l-0.44,-0.494l-0.437,-0.494l-0.435,-0.495l-0.431,-0.494l-0.427,-0.494l-0.424,-0.494l-0.42,-0.491l-0.416,-0.49l-0.412,-0.488l-0.407,-0.485l-0.402,-0.482l-0.397,-0.478l-0.392,-0.474l-0.386,-0.469l-0.38,-0.464l-0.374,-0.458l-0.368,-0.452l-0.361,-0.445l-0.354,-0.438l-0.348,-0.432l-0.668,-0.832l-0.641,-0.802l-0.148,-0.186l-0.157,-0.199l-0.29,-0.374l-0.294,-0.382l-0.289,-0.382l-0.286,-0.382l-0.282,-0.381l-0.278,-0.38l-0.274,-0.379l-0.271,-0.377l-0.268,-0.375l-0.264,-0.373l-0.26,-0.371l-0.257,-0.367l-0.253,-0.364l-0.249,-0.36l-0.246,-0.358l-0.476,-0.692l-0.46,-0.672l-0.442,-0.644l-0.424,-0.617l-0.2,-0.289l-0.195,-0.282l-0.189,-0.271l-0.182,-0.259l-0.175,-0.247l-0.166,-0.232l-0.157,-0.218l-0.153,-0.21l-0.115,-0.156l-0.122,-0.163l-0.278,-0.37l-0.292,-0.385l-0.307,-0.401l-0.318,-0.413l-0.324,-0.418l-0.326,-0.418l-0.322,-0.411l-0.126,-0.161l-0.151,-0.077l-0.177,-0.092l-0.175,-0.093l-0.189,-0.101l-0.333,-0.182l-0.346,-0.194l-0.346,-0.198l-0.347,-0.203l-0.348,-0.208l-0.35,-0.212l-0.353,-0.217l-0.355,-0.222l-0.359,-0.228l-0.361,-0.232l-0.365,-0.238l-0.369,-0.243l-0.372,-0.248l-0.375,-0.253l-0.379,-0.258l-0.382,-0.263l-0.386,-0.268l-0.389,-0.273l-0.392,-0.278l-0.395,-0.282l-0.399,-0.288l-0.401,-0.291l-0.404,-0.297l-0.406,-0.3l-0.409,-0.305l-0.411,-0.309l-0.413,-0.314l-0.416,-0.317l-0.417,-0.321l-0.418,-0.325l-0.42,-0.328l-0.421,-0.332l-0.423,-0.336l-0.423,-0.339l-0.424,-0.342l-0.424,-0.345l-0.425,-0.349l-0.425,-0.351l-0.425,-0.354l-0.425,-0.357l-0.424,-0.36l-0.423,-0.362l-0.423,-0.364l-0.422,-0.367l-0.421,-0.37l-0.42,-0.371l-0.418,-0.373l-0.416,-0.376l-0.414,-0.377l-0.419,-0.386l-0.213,-0.199l-0.219,-0.206l-0.217,-0.208l-0.216,-0.21l-0.216,-0.212l-0.216,-0.214l-0.216,-0.217l-0.217,-0.218l-0.217,-0.222l-0.219,-0.224l-0.219,-0.226l-0.221,-0.229l-0.221,-0.231l-0.228,-0.239l-0.444,-0.469l-0.453,-0.483l-0.457,-0.49l-0.461,-0.497l-0.462,-0.501l-0.465,-0.506l-0.467,-0.509l-0.926,-1.015l-0.919,-1.008l-0.904,-0.99l-0.439,-0.48l-0.432,-0.471l-0.421,-0.458l-0.41,-0.443l-0.397,-0.427l-0.382,-0.408l-0.365,-0.387l-0.352,-0.369l-0.16,-0.166l-0.159,-0.165l-0.153,-0.157l-0.146,-0.149l-0.139,-0.141l-0.132,-0.132l-0.123,-0.122l-0.149,-0.147l-0.246,-0.242l-0.277,-0.28l-0.274,-0.281l-0.272,-0.284l-0.27,-0.288l-0.269,-0.29l-0.269,-0.293l-0.268,-0.297l-0.268,-0.3l-0.267,-0.304l-0.268,-0.307l-0.268,-0.311l-0.268,-0.313l-0.268,-0.317l-0.269,-0.321l-0.269,-0.323l-0.269,-0.326l-0.269,-0.329l-0.27,-0.332l-0.27,-0.334l-0.269,-0.337l-0.27,-0.339l-0.27,-0.341l-0.27,-0.343l-0.269,-0.344l-0.269,-0.346l-0.268,-0.348l-0.268,-0.348l-0.268,-0.35l-0.266,-0.35l-0.266,-0.351l-0.264,-0.351l-0.264,-0.352l-0.262,-0.351l-0.26,-0.352l-0.259,-0.35l-0.258,-0.35l-0.256,-0.35l-0.253,-0.348l-0.252,-0.347l-0.25,-0.345l-0.247,-0.344l-0.245,-0.342l-0.242,-0.34l-0.24,-0.338l-0.237,-0.335l-0.234,-0.333l-0.23,-0.329l-0.228,-0.327l-0.224,-0.324l-0.221,-0.32l-0.218,-0.316l-0.213,-0.313l-0.21,-0.309l-0.206,-0.305l-0.203,-0.301l-0.198,-0.296l-0.194,-0.292l-0.19,-0.288l-0.186,-0.283l-0.181,-0.278l-0.177,-0.274l-0.173,-0.27l-0.17,-0.267l-0.309,-0.49l-0.306,-0.491l-0.302,-0.49l-0.298,-0.49l-0.295,-0.488l-0.291,-0.488l-0.288,-0.486l-0.284,-0.486l-0.28,-0.485l-0.277,-0.484l-0.273,-0.483l-0.271,-0.482l-0.266,-0.481l-0.264,-0.48l-0.26,-0.479l-0.257,-0.478l-0.254,-0.478l-0.25,-0.476l-0.248,-0.475l-0.245,-0.474l-0.241,-0.474l-0.239,-0.472l-0.236,-0.471l-0.233,-0.47l-0.23,-0.47l-0.228,-0.468l-0.224,-0.467l-0.223,-0.466l-0.219,-0.465l-0.217,-0.464l-0.215,-0.463l-0.212,-0.462l-0.21,-0.461l-0.207,-0.459l-0.206,-0.459l-0.203,-0.458l-0.2,-0.456l-0.199,-0.455l-0.197,-0.455l-0.194,-0.453l-0.193,-0.452l-0.191,-0.451l-0.189,-0.45l-0.187,-0.449l-0.185,-0.448l-0.184,-0.446l-0.182,-0.446l-0.18,-0.444l-0.179,-0.444l-0.177,-0.442l-0.176,-0.441l-0.175,-0.44l-0.173,-0.439l-0.173,-0.442l-0.339,-0.868l-0.335,-0.869l-0.332,-0.864l-0.328,-0.86l-0.33,-0.872l-0.16,-0.427l-0.163,-0.444l-0.159,-0.444l-0.156,-0.446l-0.154,-0.446l-0.15,-0.447l-0.147,-0.448l-0.144,-0.449l-0.141,-0.449l-0.139,-0.451l-0.135,-0.45l-0.132,-0.452l-0.13,-0.452l-0.126,-0.453l-0.124,-0.453l-0.121,-0.454l-0.118,-0.454l-0.115,-0.455l-0.112,-0.455l-0.11,-0.455l-0.107,-0.456l-0.104,-0.456l-0.101,-0.457l-0.099,-0.457l-0.095,-0.457l-0.093,-0.457l-0.091,-0.457l-0.087,-0.458l-0.085,-0.457l-0.083,-0.458l-0.079,-0.458l-0.077,-0.457l-0.075,-0.458l-0.071,-0.458l-0.07,-0.457l-0.066,-0.458l-0.064,-0.457l-0.061,-0.457l-0.059,-0.457l-0.056,-0.457l-0.053,-0.457l-0.051,-0.456l-0.049,-0.456l-0.045,-0.455l-0.044,-0.455l-0.04,-0.455l-0.038,-0.454l-0.036,-0.454l-0.033,-0.453l-0.031,-0.453l-0.028,-0.452l-0.025,-0.452l-0.023,-0.451l-0.02,-0.45l-0.018,-0.45l-0.015,-0.449l-0.013,-0.448l-0.01,-0.448l-0.008,-0.447l-0.005,-0.446l-0.003,-0.445l0,-0.444l0.003,-0.444l0.005,-0.433l0.006,-0.412l0.007,-0.405l0.009,-0.407l0.009,-0.408l0.011,-0.41l0.012,-0.412l0.013,-0.414l0.015,-0.415l0.016,-0.417l0.017,-0.419l0.019,-0.42l0.02,-0.422l0.021,-0.423l0.023,-0.424l0.025,-0.426l0.026,-0.427l0.028,-0.428l0.03,-0.429l0.031,-0.431l0.033,-0.432l0.035,-0.433l0.037,-0.434l0.038,-0.435l0.041,-0.436l0.042,-0.437l0.045,-0.438l0.046,-0.438l0.049,-0.44l0.05,-0.44l0.053,-0.441l0.056,-0.442l0.057,-0.443l0.06,-0.443l0.062,-0.443l0.065,-0.445l0.067,-0.445l0.069,-0.445l0.072,-0.446l0.075,-0.446l0.078,-0.447l0.08,-0.447l0.083,-0.447l0.086,-0.448l0.088,-0.448l0.092,-0.448l0.095,-0.448l0.098,-0.448l0.101,-0.449l0.104,-0.449l0.108,-0.448l0.11,-0.449l0.115,-0.449l0.117,-0.448l0.122,-0.449l0.124,-0.448l0.129,-0.448l0.129,-0.437l0.071,-0.235l0.069,-0.224l0.069,-0.224l0.071,-0.224l0.071,-0.223l0.073,-0.224l0.074,-0.223l0.074,-0.223l0.076,-0.224l0.077,-0.223l0.077,-0.223l0.079,-0.223l0.08,-0.222l0.084,-0.23l0.09,-0.244l0.095,-0.25l0.096,-0.249l0.098,-0.247l0.099,-0.247l0.1,-0.245l0.102,-0.245l0.103,-0.244l0.105,-0.243l0.106,-0.242l0.107,-0.242l0.108,-0.241l0.11,-0.241l0.11,-0.24l0.112,-0.239l0.113,-0.239l0.115,-0.239l0.115,-0.238l0.116,-0.237l0.118,-0.238l0.119,-0.237l0.119,-0.237l0.121,-0.236l0.121,-0.236l0.123,-0.236l0.124,-0.236l0.124,-0.235l0.126,-0.235l0.126,-0.235l0.132,-0.243l0.252,-0.46l0.261,-0.468l0.263,-0.467l0.267,-0.467l0.27,-0.465l0.272,-0.464l0.275,-0.464l0.277,-0.462l0.279,-0.462l0.282,-0.46l0.283,-0.459l0.285,-0.457l0.287,-0.456l0.288,-0.455l0.289,-0.453l0.29,-0.451l0.291,-0.449l0.292,-0.447l0.293,-0.445l0.292,-0.443l0.293,-0.44l0.293,-0.438l0.293,-0.435l0.292,-0.432l0.292,-0.428l0.291,-0.426l0.29,-0.422l0.289,-0.419l0.288,-0.415l0.286,-0.411l0.285,-0.407l0.282,-0.403l0.283,-0.402l0.552,-0.779l0.543,-0.764l0.531,-0.742l0.517,-0.719l0.502,-0.695l0.486,-0.67l0.92,-1.267l0.151,-0.206l0.164,-0.22l0.166,-0.218l0.166,-0.217l0.168,-0.214l0.169,-0.213l0.17,-0.212l0.171,-0.21l0.172,-0.209l0.173,-0.207l0.174,-0.206l0.176,-0.205l0.176,-0.204l0.178,-0.203l0.179,-0.201l0.179,-0.201l0.181,-0.199l0.182,-0.199l0.182,-0.197l0.184,-0.197l0.185,-0.196l0.185,-0.195l0.187,-0.194l0.187,-0.194l0.189,-0.193l0.189,-0.192l0.19,-0.191l0.191,-0.191l0.192,-0.19l0.193,-0.189l0.193,-0.188l0.195,-0.188l0.195,-0.188l0.196,-0.186l0.196,-0.186l0.198,-0.186l0.198,-0.185l0.199,-0.184l0.2,-0.184l0.207,-0.189l0.395,-0.358l0.405,-0.362l0.408,-0.36l0.409,-0.358l0.412,-0.355l0.413,-0.353l0.415,-0.351l0.417,-0.348l0.418,-0.346l0.419,-0.343l0.42,-0.341l0.422,-0.339l0.421,-0.336l0.422,-0.333l0.423,-0.331l0.423,-0.328l0.422,-0.325l0.422,-0.322l0.422,-0.319l0.422,-0.317l0.42,-0.313l0.42,-0.31l0.418,-0.306l0.417,-0.304l0.415,-0.3l0.414,-0.296l0.412,-0.293l0.409,-0.29l0.407,-0.285l0.405,-0.282l0.402,-0.278l0.4,-0.274l0.396,-0.27l0.393,-0.265l0.39,-0.262l0.386,-0.257l0.383,-0.253l0.379,-0.249l0.375,-0.244l0.37,-0.239l0.367,-0.235l0.362,-0.23l0.357,-0.225l0.353,-0.221l0.25,-0.155l0.25,-0.154l0.251,-0.152l0.25,-0.151l0.25,-0.15l0.25,-0.148l0.25,-0.147l0.25,-0.146l0.25,-0.144l0.25,-0.143l0.25,-0.142l0.25,-0.14l0.25,-0.139l0.25,-0.138l0.25,-0.136l0.25,-0.136l0.25,-0.134l0.25,-0.132l0.25,-0.132l0.25,-0.13l0.25,-0.129l0.25,-0.128l0.25,-0.126l0.25,-0.126l0.25,-0.124l0.25,-0.123l0.25,-0.122l0.25,-0.121l0.25,-0.119l0.25,-0.118l0.25,-0.118l0.25,-0.116l0.25,-0.115l0.25,-0.114l0.251,-0.113l0.25,-0.111l0.25,-0.111l0.25,-0.11l0.25,-0.108l0.25,-0.108l0.251,-0.106l0.25,-0.106l0.25,-0.104l0.251,-0.104l0.25,-0.103l0.25,-0.101l0.251,-0.101l0.259,-0.103l0.492,-0.194l0.502,-0.193l0.501,-0.19l0.502,-0.187l0.502,-0.184l0.503,-0.18l0.503,-0.178l0.504,-0.175l0.504,-0.172l0.505,-0.17l0.505,-0.167l0.506,-0.165l0.508,-0.163l0.508,-0.161l0.509,-0.159l0.51,-0.158l0.512,-0.155l0.512,-0.154l0.515,-0.153l0.515,-0.152l0.518,-0.15l0.519,-0.15l0.521,-0.149l0.524,-0.148l0.525,-0.147l0.528,-0.147l0.53,-0.147l0.536,-0.147l1.069,-0.292l1.085,-0.293l1.099,-0.296l1.112,-0.297l2.312,-0.619l0.162,-0.042l0.218,-0.054l0.319,-0.074l0.324,-0.069l0.306,-0.06l0.296,-0.055l0.289,-0.05l0.287,-0.048l0.285,-0.045l0.287,-0.044l0.29,-0.042l0.292,-0.041l0.297,-0.04l0.3,-0.039l0.305,-0.039l0.309,-0.038l0.314,-0.038l0.319,-0.037l0.33,-0.038l0.65,-0.072l0.673,-0.071l0.686,-0.07l0.697,-0.068l0.705,-0.067l0.709,-0.065l0.712,-0.063l0.711,-0.061l0.707,-0.058l0.7,-0.056l0.691,-0.054l0.677,-0.051l0.661,-0.047l0.643,-0.045l0.622,-0.041l0.598,-0.037l0.573,-0.033l0.546,-0.03l0.519,-0.025l0.481,-0.021l0.249,-0.009l0.235,-0.007l0.232,-0.007l0.234,-0.004l0.238,-0.003l0.22,-0.001l0.955,0.004l0.883,0.005l0.837,0.008l0.796,0.01l0.757,0.011l0.721,0.013l0.687,0.014l0.657,0.016l0.628,0.016l0.602,0.017l0.579,0.018l0.561,0.018l1.057,0.037l1.01,0.036l0.99,0.034l0.486,0.015l0.494,0.015l0.502,0.014l0.513,0.012l0.53,0.012l0.55,0.009l0.573,0.009l0.602,0.007l0.633,0.005l0.668,0.003l0.708,0.001l0.75,-0.002l0.795,-0.004l0.864,-0.006l0.596,-0.005l0.618,-0.002l0.62,0.001l0.624,0.002l0.626,0.005l0.628,0.007l0.632,0.008l0.633,0.011l0.636,0.013l0.637,0.014l0.64,0.016l0.642,0.018l0.644,0.019l0.645,0.021l0.647,0.022l0.648,0.023l0.65,0.025l0.651,0.026l0.652,0.027l0.653,0.029l0.653,0.029l0.655,0.03l0.655,0.031l0.658,0.033l1.308,0.066l1.312,0.068l1.31,0.071l1.308,0.073l1.304,0.073l1.3,0.074l2.58,0.148l1.277,0.073l1.268,0.071l1.257,0.069l1.244,0.067l1.23,0.064l1.218,0.061l0.598,0.029l0.597,0.028l0.592,0.027l0.587,0.026l0.582,0.025l0.578,0.023l0.571,0.022l0.567,0.021l0.56,0.019l0.555,0.018l0.548,0.017l0.554,0.015l1.178,0.031l1.186,0.034l1.181,0.034l1.175,0.035l2.338,0.07l1.16,0.034l1.156,0.033l1.15,0.031l1.145,0.029l1.144,0.026l0.565,0.012l0.567,0.011l0.565,0.011l0.564,0.009l0.563,0.009l0.562,0.007l0.56,0.007l0.559,0.005l0.557,0.004l0.556,0.003l0.555,0.002l0.553,0.001l0.552,-0.001l0.551,-0.002l0.55,-0.004l0.547,-0.005l0.547,-0.007l0.545,-0.008l0.544,-0.01l0.543,-0.012l0.541,-0.013l0.539,-0.015l0.539,-0.017l0.537,-0.019l0.535,-0.02l0.534,-0.023l0.533,-0.025l0.532,-0.026l0.53,-0.029l0.528,-0.031l0.527,-0.033l0.526,-0.035l0.525,-0.037l0.523,-0.04l0.521,-0.042l0.521,-0.044l0.518,-0.047l0.518,-0.049l0.516,-0.052l0.522,-0.055l0.25,-0.027l0.256,-0.029l0.257,-0.03l0.267,-0.031l1.101,-0.13l1.097,-0.129l2.152,-0.252l1.052,-0.125l1.041,-0.125l0.511,-0.063l0.51,-0.063l0.507,-0.063l0.503,-0.064l0.5,-0.064l0.496,-0.065l0.493,-0.066l0.49,-0.066l0.487,-0.068l0.483,-0.068l0.481,-0.069l0.477,-0.07l0.474,-0.072l0.472,-0.072l0.469,-0.074l0.465,-0.076l0.464,-0.076l0.46,-0.079l0.458,-0.08l0.456,-0.081l0.453,-0.083l0.45,-0.086l0.449,-0.086l0.446,-0.089l0.444,-0.091l0.443,-0.093l0.448,-0.097l0.212,-0.047l0.219,-0.049l0.218,-0.05l0.219,-0.05l0.217,-0.051l0.218,-0.051l0.217,-0.052l0.216,-0.053l0.217,-0.053l0.216,-0.054l0.215,-0.054l0.216,-0.055l0.215,-0.056l0.214,-0.057l0.215,-0.057l0.214,-0.058l0.214,-0.059l0.214,-0.059l0.213,-0.06l0.214,-0.061l0.213,-0.062l0.213,-0.062l0.212,-0.063l0.213,-0.064l0.212,-0.065l0.213,-0.066l0.212,-0.066l0.212,-0.067l0.212,-0.068l0.212,-0.069l0.212,-0.07l0.212,-0.071l0.212,-0.071l0.212,-0.072l0.212,-0.074l0.212,-0.074l0.212,-0.075l0.212,-0.076l0.212,-0.077l0.213,-0.079l0.212,-0.079l0.212,-0.08l0.213,-0.081l0.213,-0.082l0.213,-0.083l0.213,-0.084l0.213,-0.085l0.213,-0.087l0.214,-0.087l0.209,-0.086l0.075,-0.032l0.07,-0.03l0.071,-0.031l0.073,-0.031l0.073,-0.033l0.074,-0.034l0.074,-0.034l0.076,-0.035l0.076,-0.036l0.078,-0.037l0.078,-0.038l0.066,-0.033l0.173,-0.087l0.163,-0.083l0.166,-0.088l0.169,-0.091l0.172,-0.094l0.175,-0.098l0.177,-0.102l0.18,-0.105l0.182,-0.109l0.186,-0.112l0.187,-0.116l0.19,-0.119l0.192,-0.123l0.195,-0.126l0.196,-0.129l0.199,-0.133l0.201,-0.136l0.203,-0.139l0.204,-0.142l0.207,-0.146l0.208,-0.149l0.211,-0.152l0.212,-0.155l0.213,-0.157l0.216,-0.161l0.217,-0.164l0.218,-0.167l0.221,-0.169l0.221,-0.172l0.223,-0.175l0.225,-0.178l0.225,-0.18l0.227,-0.183l0.229,-0.185l0.23,-0.187l0.231,-0.19l0.232,-0.193l0.233,-0.194l0.235,-0.197l0.235,-0.199l0.237,-0.202l0.238,-0.203l0.239,-0.205l0.24,-0.207l0.241,-0.21l0.238,-0.207l0.492,-0.431l0.491,-0.435l0.495,-0.44l0.498,-0.446l0.502,-0.452l0.505,-0.457l0.509,-0.462l0.511,-0.465l1.038,-0.946l1.045,-0.953l0.529,-0.482l0.532,-0.482l0.536,-0.485l0.539,-0.485l0.543,-0.487l0.546,-0.486l0.55,-0.486l0.549,-0.482l0.283,-0.246l0.279,-0.243l0.28,-0.242l0.282,-0.242l0.282,-0.241l0.284,-0.241l0.285,-0.24l0.286,-0.24l0.287,-0.239l0.288,-0.239l0.289,-0.238l0.291,-0.237l0.292,-0.236l0.294,-0.236l0.294,-0.235l0.296,-0.233l0.298,-0.233l0.299,-0.232l0.301,-0.231l0.302,-0.229l0.303,-0.229l0.306,-0.227l0.307,-0.226l0.308,-0.224l0.311,-0.224l0.312,-0.221l0.315,-0.221l0.316,-0.218l0.318,-0.217l0.321,-0.216l0.322,-0.213l0.325,-0.212l0.327,-0.21l0.33,-0.208l0.332,-0.206l0.294,-0.179l1.723,-0.862l1.842,-0.561l1.911,-0.246l1.924,0.076Zm-10.562,55.625l-0.988,0.612l-0.993,0.614l-0.664,0.409l-0.663,0.407l-0.663,0.407l-0.663,0.405l-0.662,0.403l-0.661,0.4l-0.657,0.398l-0.655,0.394l-0.651,0.391l-0.646,0.386l-0.642,0.381l-0.635,0.376l-0.629,0.37l-0.622,0.364l-0.615,0.357l-0.603,0.348l-0.704,0.404l-0.702,0.401l-0.702,0.4l-0.704,0.399l-0.705,0.398l-0.706,0.397l-0.707,0.395l-0.708,0.395l-0.71,0.392l-0.71,0.392l-0.712,0.391l-0.712,0.389l-0.714,0.387l-0.715,0.387l-0.716,0.385l-0.717,0.383l-0.718,0.382l-0.72,0.381l-0.721,0.379l-0.722,0.378l-0.723,0.376l-0.724,0.374l-0.725,0.373l-0.727,0.371l-0.728,0.37l-0.729,0.368l-0.73,0.366l-0.732,0.364l-0.733,0.363l-0.734,0.361l-0.735,0.359l-0.737,0.357l-0.78,0.376l-0.786,0.376l-0.791,0.376l-0.796,0.376l-0.8,0.375l-0.805,0.376l-0.81,0.375l-0.813,0.375l-0.816,0.374l-0.821,0.374l-0.823,0.373l-0.826,0.372l-0.829,0.371l-0.831,0.371l-0.833,0.37l-0.836,0.368l-0.836,0.367l-0.838,0.366l-0.839,0.365l-0.84,0.363l-0.84,0.362l-0.84,0.36l-0.84,0.358l-0.84,0.356l-0.839,0.354l-0.839,0.353l-0.837,0.35l-0.836,0.348l-0.834,0.346l-0.832,0.343l-0.83,0.341l-0.83,0.34l-0.83,0.337l-0.833,0.336l-0.834,0.334l-0.835,0.332l-0.835,0.33l-0.835,0.328l-0.835,0.326l-0.835,0.324l-0.836,0.322l-0.835,0.32l-0.835,0.318l-0.835,0.317l-0.834,0.315l-0.834,0.313l-0.834,0.311l-0.833,0.31l-0.832,0.308l-0.831,0.307l-0.831,0.305l-0.83,0.304l-0.828,0.302l-0.828,0.301l-0.826,0.3l-0.827,0.299l-1.643,0.592l-1.639,0.589l-1.632,0.584l-1.633,0.582l-0.428,0.152l-0.434,0.153l-0.433,0.15l-0.433,0.149l-0.431,0.147l-0.43,0.145l-0.43,0.144l-0.428,0.142l-0.427,0.141l-0.426,0.139l-0.424,0.138l-0.428,0.138l-0.838,0.268l-0.838,0.266l-0.833,0.261l-0.827,0.258l-0.822,0.255l-0.049,0.015l-0.767,0.237l-1.615,0.499l-0.797,0.247l-0.792,0.247l-0.784,0.246l-0.778,0.246l-0.777,0.248l-0.378,0.122l-0.381,0.124l-0.38,0.123l-0.377,0.125l-0.376,0.124l-0.374,0.125l-0.372,0.126l-0.37,0.126l-0.369,0.126l-0.366,0.127l-0.364,0.128l-0.363,0.129l-0.36,0.129l-0.359,0.129l-0.357,0.131l-0.354,0.131l-0.353,0.132l-0.35,0.133l-0.349,0.134l-0.346,0.135l-0.345,0.136l-0.342,0.137l-0.34,0.138l-0.339,0.14l-0.336,0.14l-0.345,0.146l-0.832,0.356l-0.852,0.365l-0.858,0.37l-0.865,0.375l-0.871,0.38l-0.875,0.384l-0.884,0.391l-0.438,0.194l-0.442,0.198l-0.442,0.198l-0.443,0.2l-0.444,0.201l-0.444,0.202l-0.445,0.203l-0.444,0.204l-0.445,0.205l-0.444,0.206l-0.445,0.208l-0.444,0.208l-0.444,0.21l-0.444,0.211l-0.443,0.211l-0.442,0.213l-0.442,0.214l-0.441,0.214l-0.44,0.216l-0.439,0.217l-0.438,0.217l-0.436,0.219l-0.436,0.219l-0.434,0.221l-0.432,0.221l-0.431,0.222l-0.428,0.223l-0.428,0.224l-0.425,0.224l-0.423,0.226l-0.42,0.226l-0.419,0.227l-0.416,0.227l-0.414,0.229l-0.411,0.229l-0.408,0.229l-0.405,0.231l-0.403,0.231l-0.399,0.231l-0.396,0.232l-0.393,0.232l-0.389,0.233l-0.386,0.234l-0.383,0.233l-0.378,0.234l-0.375,0.234l-0.37,0.235l-0.367,0.235l-0.362,0.235l-0.36,0.236l-0.358,0.238l-0.361,0.242l-0.363,0.246l-0.363,0.249l-0.365,0.253l-0.365,0.256l-0.366,0.258l-0.367,0.262l-0.368,0.264l-0.368,0.268l-0.368,0.27l-0.369,0.272l-0.369,0.275l-0.369,0.278l-0.37,0.279l-0.369,0.283l-0.369,0.284l-0.368,0.286l-0.369,0.288l-0.368,0.29l-0.367,0.292l-0.367,0.294l-0.367,0.295l-0.365,0.297l-0.365,0.298l-0.363,0.299l-0.363,0.301l-0.362,0.302l-0.36,0.303l-0.359,0.304l-0.358,0.304l-0.356,0.306l-0.355,0.306l-0.354,0.307l-0.351,0.308l-0.35,0.307l-0.348,0.309l-0.346,0.308l-0.344,0.308l-0.342,0.309l-0.34,0.309l-0.337,0.308l-0.335,0.308l-0.333,0.308l-0.331,0.308l-0.327,0.307l-0.325,0.306l-0.323,0.306l-0.319,0.305l-0.317,0.304l-0.314,0.303l-0.31,0.302l-0.308,0.3l-0.304,0.3l-0.301,0.298l-0.298,0.296l-0.294,0.296l-0.29,0.293l-0.287,0.291l-0.283,0.29l-0.28,0.288l-0.275,0.285l-0.271,0.284l-0.264,0.276l-0.213,0.226l-0.208,0.224l-0.209,0.226l-0.208,0.229l-0.209,0.231l-0.208,0.233l-0.208,0.236l-0.208,0.237l-0.208,0.24l-0.207,0.242l-0.207,0.244l-0.206,0.246l-0.207,0.248l-0.205,0.25l-0.205,0.251l-0.205,0.253l-0.204,0.255l-0.203,0.257l-0.202,0.257l-0.202,0.26l-0.201,0.261l-0.201,0.262l-0.199,0.263l-0.199,0.264l-0.197,0.266l-0.197,0.267l-0.196,0.268l-0.195,0.269l-0.194,0.269l-0.193,0.271l-0.191,0.271l-0.191,0.272l-0.19,0.273l-0.188,0.273l-0.187,0.274l-0.186,0.274l-0.184,0.275l-0.184,0.275l-0.182,0.275l-0.18,0.276l-0.179,0.275l-0.178,0.276l-0.176,0.276l-0.175,0.276l-0.174,0.275l-0.172,0.276l-0.17,0.275l-0.168,0.275l-0.168,0.275l-0.165,0.274l-0.164,0.274l-0.162,0.273l-0.16,0.273l-0.159,0.271l-0.157,0.272l-0.155,0.27l-0.153,0.269l-0.151,0.269l-0.149,0.267l-0.148,0.267l-0.145,0.265l-0.144,0.264l-0.142,0.262l-0.137,0.257l-0.12,0.228l-0.117,0.225l-0.117,0.227l-0.115,0.228l-0.115,0.229l-0.114,0.231l-0.113,0.232l-0.113,0.233l-0.111,0.235l-0.111,0.236l-0.109,0.237l-0.109,0.239l-0.108,0.239l-0.107,0.241l-0.106,0.242l-0.105,0.243l-0.105,0.244l-0.103,0.245l-0.102,0.246l-0.102,0.248l-0.1,0.248l-0.1,0.249l-0.099,0.249l-0.097,0.251l-0.097,0.252l-0.096,0.252l-0.094,0.253l-0.094,0.254l-0.093,0.255l-0.092,0.255l-0.091,0.256l-0.089,0.256l-0.089,0.258l-0.088,0.257l-0.087,0.258l-0.085,0.259l-0.085,0.259l-0.084,0.26l-0.083,0.26l-0.081,0.26l-0.081,0.261l-0.079,0.261l-0.079,0.261l-0.077,0.261l-0.077,0.262l-0.075,0.262l-0.075,0.262l-0.073,0.262l-0.072,0.263l-0.072,0.262l-0.07,0.262l-0.069,0.263l-0.068,0.262l-0.067,0.262l-0.066,0.262l-0.065,0.263l-0.064,0.261l-0.063,0.262l-0.061,0.262l-0.061,0.261l-0.06,0.261l-0.058,0.26l-0.058,0.261l-0.056,0.26l-0.055,0.258l-0.055,0.259l-0.053,0.258l-0.053,0.259l-0.051,0.258l-0.051,0.258l-0.049,0.258l-0.049,0.258l-0.048,0.258l-0.046,0.257l-0.046,0.257l-0.044,0.257l-0.044,0.257l-0.042,0.257l-0.042,0.256l-0.04,0.256l-0.039,0.256l-0.039,0.255l-0.037,0.255l-0.036,0.255l-0.035,0.255l-0.033,0.254l-0.033,0.254l-0.032,0.253l-0.03,0.253l-0.029,0.253l-0.028,0.252l-0.027,0.252l-0.026,0.251l-0.024,0.251l-0.024,0.251l-0.022,0.25l-0.021,0.249l-0.019,0.249l-0.019,0.249l-0.017,0.248l-0.016,0.248l-0.015,0.247l-0.013,0.246l-0.012,0.246l-0.011,0.245l-0.01,0.245l-0.008,0.244l-0.007,0.244l-0.006,0.243l-0.005,0.242l-0.003,0.242l-0.002,0.241l0,0.241l0,0.239l0.003,0.24l0.003,0.238l0.005,0.238l0.006,0.237l0.007,0.236l0.009,0.236l0.01,0.235l0.011,0.234l0.013,0.234l0.014,0.232l0.016,0.232l0.017,0.232l0.018,0.23l0.02,0.234l0.01,0.103l0.009,0.096l0.025,0.24l0.026,0.235l0.029,0.245l0.033,0.253l0.035,0.261l0.039,0.268l0.041,0.275l0.044,0.282l0.047,0.288l0.05,0.294l0.052,0.3l0.055,0.304l0.058,0.309l0.06,0.314l0.062,0.318l0.065,0.321l0.067,0.325l0.069,0.329l0.071,0.331l0.073,0.333l0.075,0.336l0.077,0.339l0.078,0.34l0.08,0.341l0.081,0.343l0.083,0.344l0.084,0.345l0.085,0.345l0.087,0.346l0.087,0.346l0.089,0.346l0.089,0.345l0.09,0.345l0.091,0.344l0.091,0.343l0.092,0.342l0.09,0.335l0.187,0.682l0.186,0.668l0.185,0.658l0.185,0.647l0.183,0.633l0.18,0.62l0.178,0.603l0.174,0.586l0.169,0.568l0.164,0.547l0.159,0.526l0.303,0.999l0.318,3.407l0.149,0.092l0.204,0.123l0.191,0.114l0.177,0.104l0.162,0.093l0.146,0.081l0.086,0.047l0.42,0.101l1.593,0.646l1.479,0.876l1.331,1.087l1.155,1.274l0.153,0.197l0.18,0.229l0.478,0.606l0.584,0.741l0.656,0.835l0.351,0.448l0.356,0.458l0.361,0.465l0.362,0.47l0.361,0.471l0.356,0.469l0.344,0.458l0.177,0.238l0.173,0.235l0.226,0.31l0.23,0.318l0.228,0.319l0.228,0.321l0.226,0.323l0.227,0.325l0.226,0.326l0.228,0.33l0.449,0.653l0.453,0.661l0.452,0.66l0.455,0.662l0.223,0.325l0.225,0.324l0.224,0.323l0.223,0.319l0.222,0.316l0.221,0.312l0.219,0.307l0.217,0.302l0.215,0.297l0.212,0.29l0.21,0.284l0.206,0.276l0.203,0.268l0.199,0.259l0.201,0.258l0.089,0.112l0.098,0.124l0.606,0.758l0.639,0.796l0.324,0.403l0.333,0.411l0.337,0.416l0.342,0.421l0.347,0.425l0.352,0.428l0.355,0.432l0.359,0.434l0.362,0.436l0.365,0.437l0.368,0.438l0.37,0.439l0.372,0.438l0.374,0.438l0.375,0.436l0.375,0.434l0.377,0.432l0.376,0.429l0.376,0.425l0.376,0.42l0.374,0.416l0.378,0.416l0.181,0.198l0.185,0.201l0.184,0.2l0.184,0.197l0.183,0.196l0.183,0.194l0.181,0.192l0.181,0.19l0.179,0.188l0.178,0.185l0.178,0.183l0.172,0.177l0.371,0.377l0.372,0.375l0.377,0.377l0.383,0.378l0.387,0.378l0.391,0.38l0.394,0.38l0.398,0.38l0.401,0.38l0.404,0.379l0.406,0.378l0.408,0.378l0.41,0.376l0.411,0.374l0.412,0.372l0.412,0.37l0.412,0.367l0.413,0.365l0.411,0.361l0.411,0.359l0.41,0.354l0.408,0.351l0.406,0.346l0.403,0.342l0.401,0.337l0.398,0.332l0.395,0.327l0.39,0.322l0.387,0.315l0.381,0.309l0.377,0.303l0.371,0.296l0.322,0.254l0.323,0.253l0.323,0.252l0.324,0.249l0.324,0.247l0.325,0.246l0.325,0.244l0.325,0.241l0.326,0.24l0.327,0.238l0.326,0.235l0.328,0.234l0.327,0.231l0.328,0.229l0.329,0.227l0.329,0.225l0.329,0.223l0.329,0.22l0.33,0.218l0.331,0.216l0.331,0.213l0.331,0.211l0.331,0.208l0.332,0.206l0.332,0.203l0.333,0.201l0.332,0.199l0.334,0.195l0.333,0.194l0.334,0.19l0.334,0.188l0.338,0.188l0.356,0.194l0.362,0.196l0.366,0.195l0.368,0.194l0.371,0.193l0.374,0.192l0.376,0.19l0.378,0.19l0.379,0.188l0.382,0.186l0.382,0.184l0.384,0.182l0.385,0.181l0.386,0.178l0.386,0.176l0.386,0.173l0.387,0.171l0.386,0.169l0.386,0.165l0.385,0.163l0.385,0.159l0.392,0.16l0.183,0.073l0.191,0.076l0.19,0.076l0.19,0.074l0.19,0.074l0.189,0.072l0.188,0.072l0.189,0.071l0.187,0.07l0.187,0.069l0.186,0.068l0.186,0.067l0.184,0.066l0.185,0.065l0.183,0.064l0.182,0.063l0.182,0.061l0.181,0.061l0.179,0.06l0.179,0.059l0.171,0.055l0.172,0.055l0.172,0.054l0.173,0.054l0.174,0.053l0.174,0.053l0.175,0.052l0.176,0.051l0.176,0.051l0.177,0.051l0.177,0.05l0.178,0.049l0.179,0.049l0.18,0.048l0.18,0.048l0.18,0.047l0.181,0.047l0.182,0.046l0.183,0.046l0.183,0.045l0.183,0.045l0.176,0.042l0.379,0.089l0.373,0.085l0.375,0.082l0.377,0.082l0.379,0.079l0.382,0.077l0.384,0.075l0.386,0.074l0.388,0.072l0.39,0.07l0.392,0.069l0.394,0.067l0.396,0.065l0.398,0.064l0.4,0.062l0.401,0.06l0.404,0.06l0.405,0.057l0.407,0.057l0.408,0.055l0.412,0.054l0.434,0.055l0.435,0.055l0.435,0.053l0.433,0.051l0.434,0.05l0.432,0.047l0.432,0.047l0.432,0.044l0.431,0.043l0.431,0.04l0.43,0.039l0.431,0.036l0.43,0.035l0.43,0.032l0.43,0.031l0.431,0.027l0.43,0.026l0.431,0.023l0.431,0.021l0.431,0.018l0.44,0.017l0.208,0.006l0.216,0.007l0.216,0.005l0.217,0.005l0.217,0.004l0.216,0.004l0.217,0.003l0.218,0.002l0.217,0.002l0.218,0l0.218,0.001l0.218,-0.001l0.218,-0.002l0.219,-0.002l0.219,-0.003l0.219,-0.003l0.219,-0.005l0.22,-0.005l0.22,-0.006l0.221,-0.006l0.221,-0.008l0.222,-0.008l0.208,-0.009l0.21,-0.009l0.211,-0.01l0.21,-0.011l0.211,-0.011l0.211,-0.012l0.211,-0.013l0.211,-0.013l0.212,-0.014l0.211,-0.015l0.212,-0.015l0.212,-0.016l0.212,-0.017l0.204,-0.016l0.434,-0.037l0.426,-0.04l0.426,-0.041l0.426,-0.045l0.428,-0.047l0.427,-0.049l0.428,-0.053l0.427,-0.054l0.428,-0.057l0.429,-0.06l0.428,-0.062l0.428,-0.065l0.428,-0.067l0.428,-0.069l0.428,-0.072l0.428,-0.074l0.427,-0.077l0.427,-0.079l0.427,-0.082l0.426,-0.083l0.425,-0.086l0.425,-0.089l0.425,-0.09l0.424,-0.093l0.429,-0.096l0.441,-0.101l0.446,-0.104l0.443,-0.105l0.441,-0.105l0.439,-0.107l0.436,-0.109l0.433,-0.109l0.43,-0.111l0.428,-0.113l0.424,-0.114l0.422,-0.116l0.426,-0.119l0.2,-0.057l0.208,-0.06l0.206,-0.06l0.205,-0.061l0.205,-0.061l0.204,-0.062l0.202,-0.062l0.202,-0.062l0.201,-0.063l0.2,-0.063l0.2,-0.064l0.198,-0.065l0.197,-0.065l0.196,-0.065l0.196,-0.066l0.194,-0.066l0.193,-0.067l0.193,-0.067l0.191,-0.068l0.191,-0.069l0.189,-0.069l0.188,-0.069l0.187,-0.07l0.187,-0.071l0.185,-0.071l0.184,-0.072l0.183,-0.072l0.182,-0.072l0.18,-0.074l0.18,-0.074l0.178,-0.074l0.178,-0.075l0.176,-0.075l0.175,-0.076l0.174,-0.077l0.173,-0.077l0.172,-0.078l0.17,-0.078l0.17,-0.079l0.171,-0.081l0.181,-0.086l0.184,-0.09l0.185,-0.09l0.185,-0.092l0.186,-0.093l0.186,-0.094l0.187,-0.096l0.188,-0.096l0.187,-0.098l0.189,-0.099l0.188,-0.101l0.189,-0.101l0.189,-0.103l0.19,-0.104l0.19,-0.105l0.19,-0.106l0.19,-0.107l0.191,-0.108l0.191,-0.11l0.191,-0.11l0.191,-0.112l0.191,-0.112l0.191,-0.114l0.192,-0.114l0.191,-0.116l0.191,-0.116l0.192,-0.118l0.191,-0.118l0.191,-0.119l0.192,-0.121l0.191,-0.121l0.191,-0.122l0.191,-0.123l0.19,-0.124l0.191,-0.124l0.19,-0.125l0.19,-0.127l0.19,-0.127l0.19,-0.127l0.189,-0.129l0.189,-0.129l0.189,-0.13l0.188,-0.131l0.188,-0.131l0.187,-0.132l0.187,-0.133l0.187,-0.133l0.186,-0.134l0.186,-0.135l0.185,-0.135l0.185,-0.135l0.184,-0.137l0.183,-0.136l0.183,-0.138l0.183,-0.137l0.182,-0.139l0.181,-0.138l0.18,-0.14l0.18,-0.139l0.179,-0.14l0.178,-0.141l0.178,-0.141l0.176,-0.141l0.176,-0.141l0.176,-0.143l0.177,-0.144l0.176,-0.145l0.177,-0.146l0.176,-0.148l0.177,-0.148l0.178,-0.151l0.177,-0.151l0.177,-0.152l0.178,-0.154l0.177,-0.155l0.178,-0.155l0.178,-0.157l0.177,-0.158l0.178,-0.159l0.177,-0.16l0.178,-0.161l0.177,-0.162l0.178,-0.163l0.177,-0.164l0.177,-0.165l0.177,-0.166l0.176,-0.167l0.177,-0.167l0.176,-0.169l0.176,-0.169l0.175,-0.17l0.176,-0.171l0.175,-0.171l0.174,-0.172l0.175,-0.173l0.174,-0.174l0.173,-0.174l0.173,-0.175l0.173,-0.176l0.173,-0.176l0.171,-0.177l0.172,-0.177l0.17,-0.178l0.171,-0.179l0.17,-0.178l0.169,-0.18l0.168,-0.18l0.168,-0.18l0.168,-0.181l0.166,-0.181l0.167,-0.181l0.165,-0.182l0.165,-0.182l0.164,-0.182l0.163,-0.183l0.163,-0.183l0.161,-0.183l0.161,-0.184l0.161,-0.183l0.159,-0.184l0.159,-0.184l0.157,-0.184l0.157,-0.184l0.156,-0.184l0.155,-0.184l0.154,-0.185l0.154,-0.184l0.15,-0.182l0.148,-0.18l0.145,-0.178l0.145,-0.18l0.146,-0.181l0.145,-0.182l0.144,-0.183l0.145,-0.184l0.144,-0.185l0.144,-0.187l0.144,-0.187l0.143,-0.188l0.143,-0.189l0.143,-0.19l0.143,-0.19l0.142,-0.192l0.142,-0.192l0.141,-0.194l0.142,-0.194l0.14,-0.194l0.141,-0.196l0.14,-0.196l0.139,-0.197l0.139,-0.198l0.139,-0.198l0.138,-0.199l0.138,-0.199l0.138,-0.2l0.136,-0.201l0.137,-0.201l0.136,-0.202l0.135,-0.202l0.135,-0.203l0.134,-0.203l0.134,-0.204l0.134,-0.204l0.128,-0.197l0.268,-0.417l0.262,-0.411l0.259,-0.412l0.257,-0.413l0.254,-0.413l0.251,-0.414l0.249,-0.415l0.247,-0.414l0.243,-0.415l0.241,-0.414l0.237,-0.414l0.235,-0.414l0.232,-0.412l0.23,-0.415l0.102,-0.185l0.103,-0.189l0.102,-0.189l0.102,-0.19l0.102,-0.191l0.101,-0.191l0.1,-0.192l0.1,-0.192l0.1,-0.193l0.099,-0.193l0.099,-0.195l0.098,-0.194l0.098,-0.195l0.097,-0.196l0.097,-0.197l0.096,-0.197l0.096,-0.197l0.092,-0.191l0.193,-0.405l0.187,-0.4l0.186,-0.402l0.184,-0.404l0.182,-0.406l0.181,-0.409l0.179,-0.41l0.177,-0.412l0.176,-0.414l0.173,-0.417l0.173,-0.418l0.17,-0.419l0.169,-0.422l0.168,-0.423l0.166,-0.425l0.164,-0.427l0.163,-0.429l0.161,-0.43l0.16,-0.431l0.159,-0.433l0.157,-0.435l0.155,-0.436l0.153,-0.434l0.159,-0.457l0.158,-0.462l0.158,-0.469l0.158,-0.477l0.158,-0.484l0.157,-0.489l0.157,-0.496l0.156,-0.5l0.155,-0.505l0.155,-0.508l0.153,-0.512l0.151,-0.515l0.15,-0.518l0.149,-0.519l0.146,-0.52l0.145,-0.521l0.143,-0.521l0.14,-0.521l0.138,-0.521l0.136,-0.519l0.133,-0.517l0.13,-0.514l0.128,-0.512l0.124,-0.508l0.121,-0.504l0.118,-0.5l0.114,-0.494l0.111,-0.489l0.107,-0.483l0.104,-0.475l0.099,-0.468l0.096,-0.463l0.039,-0.191l0.039,-0.195l0.038,-0.197l0.038,-0.199l0.038,-0.202l0.037,-0.203l0.037,-0.204l0.037,-0.207l0.036,-0.208l0.035,-0.209l0.035,-0.211l0.034,-0.204l0.07,-0.437l0.066,-0.434l0.065,-0.437l0.063,-0.442l0.061,-0.444l0.06,-0.448l0.058,-0.449l0.056,-0.451l0.054,-0.453l0.053,-0.454l0.051,-0.453l0.05,-0.454l0.048,-0.454l0.046,-0.452l0.045,-0.452l0.043,-0.449l0.042,-0.448l0.041,-0.445l0.04,-0.442l0.038,-0.439l0.037,-0.435l0.035,-0.426l0.069,-0.855l0.063,-0.816l0.022,-0.303l0.02,-0.294l0.018,-0.296l0.017,-0.3l0.015,-0.302l0.014,-0.304l0.012,-0.307l0.011,-0.31l0.01,-0.313l0.008,-0.315l0.007,-0.317l0.006,-0.321l0.005,-0.323l0.004,-0.325l0.003,-0.328l0.002,-0.331l0,-0.333l0.001,-0.336l-0.001,-0.339l-0.001,-0.336l-0.005,-0.696l-0.006,-0.699l-0.008,-0.71l-0.009,-0.72l-0.009,-0.73l-0.009,-0.724l-0.009,-0.746l-0.012,-0.743l-0.015,-0.755l-0.018,-0.765l-0.02,-0.773l-0.022,-0.782l-0.024,-0.789l-0.027,-0.793l-0.007,-0.189l-0.021,-0.61l-0.03,-0.801l-0.032,-0.804l-0.033,-0.805l-0.035,-0.805l-0.035,-0.804l-0.037,-0.802l-0.037,-0.793l-0.022,-0.437l-0.023,-0.442l-0.025,-0.452l-0.026,-0.462l-0.028,-0.471l-0.029,-0.476l-0.062,-0.989l-0.067,-1.012l-0.069,-1.037l-0.144,-2.131l-0.072,-1.088l-0.072,-1.098l-0.069,-1.101l-0.034,-0.559l-0.033,-0.555l-0.031,-0.556l-0.031,-0.556l-0.029,-0.556l-0.028,-0.555l-0.026,-0.554l-0.025,-0.553l-0.022,-0.552l-0.02,-0.545l-0.018,-0.521l-0.017,-0.515l-0.016,-0.516l-0.014,-0.515l-0.014,-0.515l-0.013,-0.515l-0.012,-0.514l-0.011,-0.514l-0.01,-0.514l-0.009,-0.513l-0.008,-0.512l-0.008,-0.517l-0.013,-1.018l-0.01,-1.019l-0.008,-1.017l-0.005,-1.013l-0.002,-1.009l-0.001,-1.005l0.001,-1l0.003,-0.995l0.005,-0.99l0.006,-0.983l0.013,-1.926l0.008,-0.979l0.009,-0.985l0.011,-0.991l0.012,-0.995l0.016,-0.996l0.008,-0.504l0.01,-0.501l0.01,-0.502l0.011,-0.501l0.013,-0.502l0.013,-0.502l0.014,-0.501l0.015,-0.501l0.016,-0.501l0.018,-0.499l0.019,-0.5l0.02,-0.498l0.022,-0.497l0.023,-0.496l0.024,-0.495l0.026,-0.494l0.028,-0.493l0.03,-0.489l0.029,-0.459l0.031,-0.457l0.032,-0.456l0.033,-0.455l0.035,-0.454l0.037,-0.453l0.037,-0.452l0.039,-0.451l0.04,-0.449l0.042,-0.449l0.042,-0.448l0.044,-0.447l0.044,-0.446l0.046,-0.445l0.047,-0.444l0.047,-0.443l0.049,-0.442l0.049,-0.441l0.05,-0.441l0.051,-0.439l0.052,-0.438l0.053,-0.442l0.106,-0.866l0.11,-0.867l0.111,-0.864l0.113,-0.859l0.113,-0.843l0.063,-0.464l0.061,-0.462l0.126,-0.982l0.131,-1.029l0.137,-1.072l0.141,-1.106l0.074,-0.57l0.076,-0.574l0.077,-0.58l0.079,-0.587l0.082,-0.59l0.084,-0.596l0.086,-0.599l0.089,-0.602l0.092,-0.604l0.095,-0.607l0.097,-0.6l0.052,-0.311l0.051,-0.305l0.052,-0.305l0.053,-0.305l0.054,-0.305l0.055,-0.305l0.057,-0.305l0.057,-0.305l0.058,-0.305l0.06,-0.305l0.061,-0.304l0.062,-0.305l0.064,-0.304l0.065,-0.305l0.066,-0.304l0.068,-0.304l0.07,-0.305l0.071,-0.304l0.073,-0.304l0.075,-0.304l0.078,-0.304l0.075,-0.29l0.122,-0.462l0.12,-0.447l0.12,-0.446l0.12,-0.443l0.122,-0.443l0.122,-0.441l0.123,-0.44l0.124,-0.44l0.126,-0.438l0.126,-0.438l0.128,-0.437l0.13,-0.436l0.13,-0.436l0.133,-0.435l0.134,-0.436l0.136,-0.435l0.137,-0.435l0.14,-0.434l0.141,-0.435l0.144,-0.435l0.145,-0.436l0.148,-0.435l0.15,-0.436l0.153,-0.436l0.155,-0.436l0.157,-0.437l0.16,-0.438l0.163,-0.438l0.165,-0.439l0.168,-0.44l0.171,-0.44l0.17,-0.433l0.197,-0.495l0.198,-0.496l0.204,-0.505l0.208,-0.514l0.212,-0.522l0.218,-0.53l0.221,-0.537l0.226,-0.544l0.231,-0.551l0.235,-0.556l0.239,-0.562l0.243,-0.567l0.247,-0.571l0.251,-0.576l0.255,-0.579l0.259,-0.582l0.262,-0.586l0.267,-0.588l0.27,-0.59l0.273,-0.591l0.278,-0.593l0.28,-0.593l0.285,-0.594l0.285,-0.587l0.148,-0.303l0.146,-0.297l0.147,-0.297l0.148,-0.296l0.149,-0.296l0.149,-0.296l0.151,-0.295l0.152,-0.295l0.152,-0.295l0.153,-0.294l0.154,-0.293l0.026,-0.049l-0.84,0.523Zm-154.588,-1.565l-0.04,0.001l-0.071,0.001l-0.098,0.003l-0.119,0.004l-0.129,0.004l-0.34,0.015l-0.387,0.019l-0.435,0.023l-0.478,0.028l-0.515,0.032l-0.546,0.036l-0.573,0.04l-0.596,0.043l-0.615,0.046l-0.628,0.048l-0.639,0.052l-0.645,0.053l-0.647,0.056l-0.646,0.057l-0.639,0.058l-0.63,0.06l-0.616,0.06l-0.598,0.061l-0.574,0.061l-0.555,0.061l-0.254,0.029l-0.252,0.03l-0.243,0.029l-0.232,0.029l-0.221,0.028l-0.208,0.027l-0.194,0.026l-0.18,0.025l-0.163,0.024l-0.145,0.022l-0.126,0.02l-0.102,0.017l-0.062,0.011l-2.082,0.557l-1.098,0.294l-1.071,0.287l-1.044,0.283l-1.022,0.279l-0.496,0.136l-0.494,0.137l-0.487,0.135l-0.481,0.135l-0.474,0.135l-0.469,0.133l-0.464,0.134l-0.457,0.133l-0.451,0.133l-0.446,0.132l-0.441,0.133l-0.435,0.132l-0.43,0.133l-0.425,0.132l-0.419,0.133l-0.415,0.133l-0.409,0.134l-0.406,0.134l-0.4,0.135l-0.396,0.135l-0.392,0.136l-0.388,0.137l-0.383,0.138l-0.38,0.139l-0.376,0.14l-0.373,0.141l-0.369,0.142l-0.375,0.148l-0.173,0.069l-0.182,0.073l-0.18,0.073l-0.18,0.074l-0.179,0.074l-0.179,0.074l-0.177,0.075l-0.178,0.076l-0.177,0.076l-0.176,0.076l-0.176,0.077l-0.175,0.078l-0.174,0.078l-0.175,0.079l-0.174,0.079l-0.173,0.08l-0.173,0.08l-0.173,0.081l-0.173,0.082l-0.172,0.082l-0.172,0.083l-0.172,0.084l-0.171,0.084l-0.171,0.085l-0.171,0.086l-0.171,0.087l-0.171,0.087l-0.171,0.088l-0.171,0.089l-0.171,0.09l-0.17,0.09l-0.171,0.092l-0.171,0.092l-0.171,0.094l-0.17,0.094l-0.171,0.095l-0.172,0.096l-0.171,0.097l-0.171,0.098l-0.172,0.099l-0.172,0.1l-0.172,0.101l-0.172,0.103l-0.173,0.103l-0.173,0.104l-0.174,0.106l-0.173,0.107l-0.174,0.108l-0.278,0.173l-0.284,0.179l-0.29,0.184l-0.295,0.19l-0.302,0.195l-0.307,0.199l-0.311,0.205l-0.316,0.209l-0.321,0.213l-0.324,0.218l-0.328,0.222l-0.332,0.225l-0.334,0.23l-0.338,0.233l-0.34,0.237l-0.342,0.24l-0.345,0.243l-0.346,0.246l-0.348,0.25l-0.348,0.252l-0.35,0.254l-0.351,0.257l-0.35,0.259l-0.351,0.262l-0.351,0.263l-0.35,0.265l-0.35,0.267l-0.349,0.268l-0.347,0.27l-0.346,0.27l-0.344,0.272l-0.342,0.272l-0.34,0.273l-0.337,0.274l-0.334,0.274l-0.331,0.274l-0.327,0.273l-0.324,0.274l-0.32,0.273l-0.315,0.272l-0.311,0.271l-0.305,0.27l-0.301,0.269l-0.301,0.273l-0.139,0.127l-0.144,0.132l-0.142,0.132l-0.141,0.131l-0.139,0.13l-0.137,0.13l-0.136,0.13l-0.133,0.128l-0.132,0.128l-0.131,0.127l-0.128,0.126l-0.127,0.125l-0.124,0.124l-0.123,0.123l-0.12,0.123l-0.119,0.121l-0.116,0.12l-0.114,0.119l-0.112,0.117l-0.11,0.117l-0.107,0.115l-0.105,0.113l-0.102,0.112l-0.101,0.111l-0.097,0.109l-0.095,0.107l-0.093,0.106l-0.09,0.104l-0.087,0.102l-0.085,0.1l-0.082,0.098l-0.079,0.096l-0.076,0.093l-0.074,0.092l-0.07,0.089l-0.067,0.086l-0.065,0.084l-0.061,0.081l-0.059,0.078l-0.066,0.091l-0.88,1.211l-0.465,0.642l-0.479,0.663l-0.489,0.68l-0.499,0.697l-0.507,0.713l-0.517,0.729l-0.256,0.364l-0.259,0.37l-0.261,0.373l-0.261,0.375l-0.261,0.377l-0.262,0.379l-0.262,0.381l-0.261,0.383l-0.262,0.384l-0.26,0.385l-0.26,0.386l-0.259,0.386l-0.257,0.388l-0.256,0.387l-0.255,0.387l-0.253,0.387l-0.25,0.386l-0.248,0.386l-0.246,0.385l-0.243,0.383l-0.24,0.382l-0.237,0.381l-0.233,0.378l-0.23,0.376l-0.226,0.373l-0.222,0.37l-0.218,0.367l-0.213,0.364l-0.208,0.359l-0.203,0.356l-0.198,0.35l-0.193,0.346l-0.191,0.349l-0.087,0.16l-0.09,0.167l-0.088,0.165l-0.087,0.164l-0.085,0.162l-0.083,0.16l-0.082,0.159l-0.079,0.156l-0.079,0.155l-0.076,0.153l-0.075,0.151l-0.073,0.148l-0.071,0.147l-0.069,0.144l-0.067,0.142l-0.065,0.14l-0.064,0.137l-0.061,0.135l-0.059,0.132l-0.058,0.129l-0.055,0.127l-0.053,0.123l-0.051,0.121l-0.049,0.117l-0.047,0.114l-0.044,0.111l-0.042,0.108l-0.041,0.103l-0.037,0.1l-0.039,0.104l-0.042,0.117l-0.045,0.125l-0.045,0.126l-0.044,0.126l-0.044,0.128l-0.043,0.128l-0.043,0.13l-0.043,0.13l-0.043,0.131l-0.042,0.131l-0.042,0.133l-0.041,0.133l-0.041,0.135l-0.038,0.124l-0.084,0.283l-0.079,0.276l-0.077,0.279l-0.077,0.281l-0.074,0.285l-0.073,0.287l-0.072,0.291l-0.07,0.293l-0.069,0.295l-0.067,0.298l-0.066,0.301l-0.064,0.303l-0.062,0.306l-0.061,0.307l-0.06,0.31l-0.058,0.313l-0.056,0.314l-0.055,0.316l-0.053,0.319l-0.052,0.32l-0.051,0.322l-0.048,0.324l-0.048,0.325l-0.045,0.327l-0.045,0.329l-0.043,0.33l-0.041,0.331l-0.04,0.333l-0.038,0.334l-0.038,0.335l-0.035,0.337l-0.034,0.337l-0.033,0.339l-0.032,0.339l-0.03,0.34l-0.029,0.341l-0.027,0.342l-0.027,0.343l-0.025,0.343l-0.023,0.344l-0.023,0.344l-0.021,0.345l-0.02,0.345l-0.019,0.345l-0.017,0.345l-0.017,0.346l-0.015,0.346l-0.014,0.346l-0.014,0.346l-0.012,0.346l-0.011,0.345l-0.01,0.346l-0.009,0.345l-0.008,0.345l-0.007,0.345l-0.006,0.344l-0.005,0.334l-0.004,0.319l-0.002,0.312l0,0.313l0.002,0.314l0.004,0.316l0.005,0.318l0.008,0.318l0.009,0.32l0.011,0.321l0.012,0.322l0.015,0.323l0.016,0.324l0.019,0.324l0.02,0.326l0.022,0.327l0.024,0.327l0.025,0.328l0.028,0.328l0.029,0.329l0.032,0.329l0.033,0.33l0.035,0.33l0.037,0.331l0.038,0.331l0.041,0.331l0.042,0.331l0.045,0.331l0.046,0.331l0.048,0.331l0.05,0.331l0.052,0.33l0.054,0.331l0.055,0.33l0.058,0.33l0.059,0.329l0.061,0.329l0.063,0.328l0.065,0.328l0.066,0.327l0.069,0.326l0.07,0.326l0.072,0.325l0.074,0.324l0.075,0.323l0.078,0.322l0.079,0.32l0.081,0.32l0.083,0.319l0.084,0.317l0.087,0.316l0.088,0.315l0.089,0.313l0.092,0.312l0.093,0.311l0.095,0.308l0.096,0.308l0.098,0.305l0.1,0.304l0.101,0.302l0.104,0.3l0.104,0.298l0.106,0.296l0.108,0.294l0.115,0.307l0.306,0.808l0.312,0.818l0.313,0.815l0.313,0.811l0.317,0.812l0.156,0.399l0.159,0.401l0.159,0.401l0.159,0.4l0.16,0.4l0.161,0.399l0.162,0.398l0.162,0.397l0.163,0.397l0.164,0.396l0.165,0.395l0.165,0.395l0.167,0.394l0.168,0.394l0.169,0.394l0.17,0.392l0.171,0.393l0.173,0.392l0.173,0.392l0.176,0.391l0.176,0.391l0.178,0.391l0.179,0.39l0.181,0.39l0.183,0.39l0.184,0.39l0.186,0.39l0.187,0.389l0.189,0.39l0.192,0.389l0.193,0.39l0.195,0.389l0.196,0.39l0.199,0.39l0.201,0.39l0.204,0.389l0.205,0.391l0.208,0.39l0.21,0.391l0.212,0.391l0.214,0.391l0.218,0.391l0.219,0.392l0.222,0.393l0.225,0.393l0.228,0.393l0.23,0.394l0.233,0.394l0.236,0.395l0.239,0.396l0.241,0.396l0.245,0.397l0.248,0.398l0.252,0.4l0.118,0.186l0.127,0.198l0.133,0.206l0.14,0.215l0.147,0.223l0.152,0.23l0.158,0.238l0.163,0.244l0.169,0.251l0.173,0.257l0.178,0.262l0.183,0.267l0.187,0.273l0.191,0.277l0.195,0.281l0.199,0.285l0.202,0.289l0.206,0.292l0.208,0.296l0.212,0.298l0.214,0.3l0.217,0.303l0.219,0.304l0.221,0.307l0.223,0.307l0.225,0.309l0.227,0.309l0.227,0.31l0.229,0.31l0.23,0.31l0.231,0.309l0.232,0.309l0.232,0.308l0.232,0.307l0.232,0.305l0.231,0.303l0.232,0.301l0.231,0.299l0.23,0.296l0.229,0.293l0.228,0.29l0.226,0.286l0.225,0.282l0.222,0.278l0.221,0.273l0.218,0.268l0.215,0.263l0.213,0.258l0.209,0.251l0.205,0.245l0.202,0.238l0.198,0.232l0.193,0.223l0.187,0.216l0.171,0.194l-0.001,-0.184l-0.001,-0.367l0.001,-0.366l0.002,-0.366l0.005,-0.365l0.007,-0.364l0.009,-0.364l0.01,-0.364l0.013,-0.363l0.014,-0.362l0.016,-0.362l0.018,-0.361l0.02,-0.361l0.021,-0.359l0.023,-0.36l0.025,-0.358l0.027,-0.359l0.028,-0.357l0.03,-0.357l0.031,-0.356l0.033,-0.355l0.035,-0.355l0.036,-0.354l0.038,-0.354l0.039,-0.352l0.041,-0.352l0.042,-0.352l0.044,-0.351l0.045,-0.35l0.046,-0.349l0.048,-0.348l0.049,-0.348l0.051,-0.347l0.051,-0.347l0.053,-0.345l0.055,-0.345l0.055,-0.344l0.057,-0.344l0.058,-0.342l0.06,-0.342l0.06,-0.341l0.062,-0.341l0.063,-0.339l0.063,-0.339l0.065,-0.338l0.066,-0.337l0.067,-0.337l0.069,-0.335l0.069,-0.335l0.07,-0.334l0.071,-0.334l0.074,-0.339l0.075,-0.341l0.077,-0.341l0.078,-0.342l0.08,-0.343l0.081,-0.342l0.082,-0.344l0.084,-0.343l0.085,-0.344l0.087,-0.345l0.088,-0.344l0.089,-0.346l0.091,-0.345l0.093,-0.346l0.094,-0.346l0.095,-0.346l0.097,-0.347l0.099,-0.347l0.1,-0.347l0.101,-0.347l0.103,-0.347l0.105,-0.348l0.106,-0.347l0.107,-0.348l0.109,-0.348l0.111,-0.348l0.112,-0.348l0.114,-0.348l0.115,-0.348l0.117,-0.348l0.119,-0.348l0.12,-0.348l0.122,-0.348l0.123,-0.348l0.125,-0.348l0.127,-0.348l0.128,-0.347l0.13,-0.348l0.132,-0.347l0.133,-0.347l0.136,-0.347l0.136,-0.346l0.139,-0.347l0.14,-0.346l0.142,-0.345l0.144,-0.346l0.145,-0.345l0.148,-0.344l0.149,-0.345l0.15,-0.344l0.153,-0.343l0.155,-0.343l0.156,-0.343l0.158,-0.342l0.16,-0.342l0.162,-0.341l0.164,-0.34l0.166,-0.34l0.167,-0.34l0.17,-0.339l0.172,-0.338l0.173,-0.337l0.176,-0.337l0.175,-0.332l0.183,-0.343l0.183,-0.34l0.185,-0.341l0.188,-0.341l0.189,-0.342l0.191,-0.342l0.194,-0.344l0.195,-0.343l0.198,-0.345l0.199,-0.345l0.202,-0.345l0.203,-0.346l0.206,-0.347l0.207,-0.346l0.21,-0.347l0.211,-0.348l0.213,-0.347l0.215,-0.348l0.218,-0.349l0.219,-0.348l0.221,-0.348l0.222,-0.349l0.225,-0.348l0.227,-0.349l0.228,-0.349l0.23,-0.348l0.233,-0.348l0.234,-0.349l0.235,-0.348l0.238,-0.348l0.24,-0.347l0.241,-0.347l0.243,-0.347l0.245,-0.347l0.247,-0.346l0.248,-0.346l0.25,-0.345l0.252,-0.344l0.254,-0.344l0.256,-0.344l0.257,-0.343l0.259,-0.342l0.261,-0.341l0.263,-0.34l0.264,-0.34l0.266,-0.339l0.268,-0.337l0.269,-0.337l0.272,-0.336l0.273,-0.335l0.275,-0.334l0.276,-0.332l0.279,-0.332l0.28,-0.33l0.281,-0.329l0.284,-0.328l0.285,-0.326l0.287,-0.325l0.289,-0.324l0.291,-0.322l0.293,-0.321l0.294,-0.319l0.296,-0.318l0.293,-0.311l0.327,-0.343l0.325,-0.34l0.33,-0.341l0.332,-0.343l0.336,-0.344l0.34,-0.345l0.343,-0.346l0.346,-0.347l0.349,-0.348l0.353,-0.35l0.356,-0.35l0.359,-0.351l0.362,-0.352l0.365,-0.352l0.368,-0.354l0.371,-0.354l0.373,-0.354l0.377,-0.355l0.379,-0.355l0.383,-0.356l0.384,-0.356l0.388,-0.356l0.39,-0.357l0.392,-0.356l0.395,-0.357l0.398,-0.356l0.4,-0.356l0.402,-0.356l0.404,-0.356l0.407,-0.356l0.409,-0.355l0.411,-0.355l0.413,-0.354l0.415,-0.354l0.417,-0.353l0.419,-0.352l0.421,-0.351l0.423,-0.351l0.424,-0.349l0.427,-0.349l0.428,-0.347l0.429,-0.347l0.432,-0.345l0.433,-0.343l0.434,-0.343l0.436,-0.341l0.437,-0.339l0.439,-0.338l0.44,-0.337l0.441,-0.334l0.443,-0.333l0.444,-0.331l0.445,-0.329l0.447,-0.327l0.447,-0.325l0.449,-0.322l0.449,-0.321l0.451,-0.318l0.452,-0.316l0.452,-0.314l0.454,-0.311l0.455,-0.309l0.455,-0.305l0.458,-0.305l0.468,-0.307l0.471,-0.305l0.473,-0.303l0.475,-0.301l0.477,-0.298l0.479,-0.296l0.48,-0.293l0.481,-0.292l0.484,-0.288l0.484,-0.287l0.486,-0.284l0.487,-0.283l0.488,-0.28l0.49,-0.278l0.49,-0.276l0.491,-0.273l0.492,-0.272l0.493,-0.27l0.493,-0.267l0.495,-0.266l0.494,-0.263l0.495,-0.262l0.496,-0.26l0.496,-0.257l0.495,-0.256l0.497,-0.254l0.496,-0.252l0.496,-0.25l0.496,-0.248l0.495,-0.247l0.496,-0.244l0.495,-0.243l0.494,-0.24l0.494,-0.239l0.493,-0.238l0.493,-0.235l0.492,-0.233l0.491,-0.232l0.489,-0.23l0.489,-0.228l0.488,-0.226l0.486,-0.225l0.485,-0.222l0.483,-0.221l0.482,-0.219l0.48,-0.218l0.479,-0.215l0.477,-0.214l0.475,-0.212l0.476,-0.212l0.935,-0.414l0.93,-0.408l0.92,-0.401l0.909,-0.394l0.898,-0.387l0.885,-0.38l0.883,-0.377l0.435,-0.184l0.444,-0.186l0.445,-0.183l0.443,-0.18l0.443,-0.177l0.443,-0.174l0.441,-0.172l0.441,-0.17l0.44,-0.167l0.44,-0.165l0.438,-0.162l0.438,-0.16l0.437,-0.159l0.436,-0.156l0.435,-0.154l0.434,-0.152l0.433,-0.15l0.432,-0.148l0.431,-0.147l0.429,-0.145l0.429,-0.143l0.428,-0.142l0.427,-0.141l0.425,-0.139l0.424,-0.137l0.428,-0.138l0.837,-0.268l0.838,-0.264l0.832,-0.261l0.827,-0.258l0.821,-0.255l1.624,-0.501l0.756,-0.234l0.048,-0.015l0.798,-0.247l0.79,-0.247l0.785,-0.246l0.777,-0.246l0.776,-0.248l0.379,-0.122l0.381,-0.124l0.379,-0.124l0.377,-0.124l0.376,-0.125l0.374,-0.125l0.372,-0.126l0.37,-0.126l0.368,-0.127l0.366,-0.127l0.365,-0.128l0.37,-0.132l1.604,-0.572l1.613,-0.577l1.614,-0.579l1.616,-0.583l0.805,-0.291l0.807,-0.293l0.806,-0.293l0.806,-0.294l0.805,-0.295l0.804,-0.296l0.804,-0.296l0.803,-0.298l0.803,-0.298l0.801,-0.299l0.8,-0.301l0.799,-0.301l0.798,-0.303l0.796,-0.303l0.795,-0.305l0.794,-0.306l0.792,-0.307l0.79,-0.308l0.788,-0.31l0.787,-0.31l0.784,-0.312l0.783,-0.314l0.78,-0.315l0.781,-0.317l0.79,-0.323l0.795,-0.327l0.798,-0.329l0.799,-0.331l0.801,-0.334l0.803,-0.336l0.803,-0.337l0.803,-0.34l0.804,-0.341l0.804,-0.342l0.804,-0.345l0.803,-0.345l0.802,-0.347l0.801,-0.348l0.799,-0.349l0.798,-0.35l0.795,-0.351l0.793,-0.352l0.79,-0.352l0.787,-0.353l0.783,-0.353l0.78,-0.353l0.776,-0.354l0.771,-0.353l0.767,-0.354l0.762,-0.353l0.756,-0.353l0.751,-0.352l0.745,-0.352l0.739,-0.351l0.732,-0.35l0.725,-0.349l0.681,-0.33l0.221,-0.108l-0.525,0.072l-0.547,0.074l-0.546,0.073l-0.545,0.071l-0.545,0.071l-0.544,0.069l-0.544,0.068l-0.544,0.067l-0.546,0.066l-1.081,0.131l-1.086,0.128l-2.167,0.255l-1.088,0.127l-1.1,0.13l-0.306,0.036l-0.317,0.037l-0.317,0.035l-0.324,0.035l-0.626,0.066l-0.632,0.064l-0.632,0.06l-0.63,0.057l-0.63,0.053l-0.629,0.051l-0.628,0.048l-0.627,0.044l-0.627,0.042l-0.625,0.039l-0.625,0.037l-0.624,0.034l-0.622,0.031l-0.622,0.029l-0.622,0.026l-0.62,0.024l-0.619,0.021l-0.618,0.02l-0.618,0.017l-0.617,0.015l-0.615,0.013l-0.615,0.012l-0.614,0.009l-0.613,0.007l-0.612,0.006l-0.611,0.004l-0.61,0.003l-0.609,0.001l-0.609,-0.001l-0.607,-0.002l-0.607,-0.003l-0.605,-0.005l-0.605,-0.006l-0.604,-0.007l-0.602,-0.008l-0.602,-0.009l-0.601,-0.01l-0.6,-0.011l-0.599,-0.012l-0.602,-0.013l-1.189,-0.027l-1.19,-0.03l-1.185,-0.032l-1.183,-0.033l-1.178,-0.035l-2.345,-0.07l-1.167,-0.035l-1.163,-0.034l-1.159,-0.032l-1.168,-0.032l-0.589,-0.016l-0.605,-0.018l-0.608,-0.019l-0.611,-0.022l-0.613,-0.022l-0.617,-0.024l-0.619,-0.025l-0.621,-0.026l-0.624,-0.028l-0.626,-0.028l-0.629,-0.03l-0.634,-0.03l-1.263,-0.064l-1.273,-0.066l-1.279,-0.069l-1.284,-0.071l-1.287,-0.072l-1.289,-0.074l-2.58,-0.147l-1.289,-0.074l-1.286,-0.072l-1.283,-0.071l-1.277,-0.069l-1.27,-0.067l-1.267,-0.064l-0.624,-0.03l-0.626,-0.03l-0.623,-0.029l-0.62,-0.028l-0.617,-0.026l-0.614,-0.026l-0.61,-0.024l-0.607,-0.024l-0.604,-0.021l-0.599,-0.021l-0.595,-0.019l-0.591,-0.018l-0.586,-0.016l-0.582,-0.014l-0.577,-0.013l-0.571,-0.012l-0.567,-0.009l-0.561,-0.008l-0.555,-0.006l-0.549,-0.004l-0.543,-0.002l-0.536,-0.001l-0.53,0.002l-0.543,0.004l-0.889,0.007l-0.864,0.004l-0.821,0.002l-0.781,-0.001l-0.745,-0.004l-0.711,-0.005l-0.68,-0.008l-0.652,-0.01l-0.627,-0.011l-0.602,-0.013l-0.582,-0.014l-0.563,-0.016l-0.547,-0.016l-0.537,-0.017l-1.029,-0.035l-1.014,-0.036l-1.024,-0.035l-0.518,-0.017l-0.533,-0.017l-0.549,-0.015l-0.57,-0.015l-0.595,-0.014l-0.622,-0.013l-0.655,-0.012l-0.691,-0.01l-0.73,-0.009l-0.774,-0.007l-0.82,-0.006l-0.844,-0.003l-0.032,0Z"/>
    <path d="M212.973,470.609l0.046,0.103l0.381,0.972l0.466,1.189l0.503,1.29l0.535,1.379l0.561,1.452l0.288,0.751l0.292,0.764l0.296,0.777l0.298,0.787l0.238,0.63l0.047,0.166l0.227,0.805l0.227,0.811l0.226,0.815l0.225,0.817l0.223,0.819l0.221,0.817l0.218,0.815l0.214,0.811l0.21,0.807l0.205,0.799l0.2,0.792l0.006,0.024l0.125,0.758l0.125,0.767l0.06,0.384l0.058,0.378l0.057,0.374l0.055,0.371l0.054,0.367l0.051,0.363l0.05,0.36l0.048,0.355l0.074,0.543l0.004,0.067l0.033,0.61l0.032,0.61l0.029,0.611l0.028,0.611l0.025,0.611l0.023,0.612l0.022,0.612l0.018,0.599l0,0.013l-0.035,0.61l-0.037,0.609l-0.039,0.61l-0.042,0.609l-0.043,0.61l-0.046,0.609l-0.049,0.609l-0.05,0.609l-0.053,0.609l-0.055,0.608l-0.058,0.609l-0.06,0.608l-0.063,0.608l-0.065,0.608l-0.068,0.607l-0.07,0.607l-0.073,0.607l-0.075,0.607l-0.078,0.606l-0.081,0.606l-0.083,0.606l-0.086,0.605l-0.088,0.6l-0.09,0.598l-0.091,0.594l-0.094,0.596l-0.095,0.598l-0.097,0.599l-0.1,0.6l-0.102,0.602l-0.104,0.603l-0.107,0.603l-0.109,0.605l-0.112,0.606l-0.114,0.607l-0.118,0.607l-0.12,0.608l-0.124,0.609l-0.126,0.609l-0.13,0.609l-0.132,0.605l-0.068,0.31l-0.069,0.305l-0.069,0.306l-0.071,0.305l-0.071,0.305l-0.072,0.305l-0.073,0.306l-0.074,0.305l-0.075,0.305l-0.076,0.306l-0.077,0.305l-0.078,0.305l-0.078,0.305l-0.08,0.305l-0.081,0.306l-0.082,0.305l-0.083,0.305l-0.084,0.304l-0.085,0.305l-0.086,0.305l-0.087,0.304l-0.088,0.305l-0.09,0.304l-0.09,0.304l-0.092,0.304l-0.093,0.303l-0.094,0.304l-0.095,0.302l-0.189,0.595l-0.192,0.598l-0.195,0.602l-0.2,0.606l-0.203,0.609l-0.207,0.612l-0.211,0.616l-0.215,0.618l-0.217,0.616l-0.113,0.316l-0.112,0.312l-0.114,0.312l-0.114,0.313l-0.116,0.313l-0.116,0.314l-0.118,0.314l-0.119,0.314l-0.12,0.315l-0.121,0.314l-0.123,0.316l-0.123,0.315l-0.125,0.315l-0.126,0.316l-0.128,0.316l-0.129,0.316l-0.129,0.316l-0.132,0.316l-0.132,0.316l-0.134,0.316l-0.135,0.316l-0.137,0.315l-0.138,0.316l-0.14,0.316l-0.14,0.315l-0.143,0.315l-0.143,0.315l-0.146,0.315l-0.146,0.314l-0.149,0.315l-0.149,0.313l-0.152,0.314l-0.153,0.313l-0.154,0.312l-0.156,0.312l-0.158,0.312l-0.159,0.311l-0.162,0.31l-0.162,0.31l-0.165,0.31l-0.166,0.308l-0.168,0.308l-0.17,0.308l-0.172,0.306l-0.174,0.306l-0.173,0.3l-0.321,0.553l-0.323,0.55l-0.328,0.554l-0.33,0.552l-0.171,0.284l-0.17,0.28l-0.171,0.28l-0.172,0.281l-0.175,0.282l-0.175,0.281l-0.177,0.283l-0.179,0.282l-0.18,0.283l-0.182,0.284l-0.183,0.283l-0.186,0.284l-0.187,0.284l-0.188,0.284l-0.191,0.284l-0.192,0.284l-0.194,0.284l-0.196,0.284l-0.198,0.284l-0.2,0.284l-0.202,0.284l-0.204,0.283l-0.207,0.283l-0.208,0.283l-0.21,0.283l-0.213,0.282l-0.215,0.282l-0.217,0.281l-0.22,0.281l-0.222,0.28l-0.224,0.28l-0.227,0.278l-0.23,0.279l-0.231,0.277l-0.235,0.277l-0.237,0.275l-0.24,0.275l-0.242,0.274l-0.246,0.273l-0.248,0.271l-0.251,0.271l-0.253,0.269l-0.257,0.268l-0.26,0.267l-0.262,0.266l-0.266,0.263l-0.269,0.263l-0.272,0.261l-0.275,0.259l-0.278,0.257l-0.282,0.256l-0.284,0.254l-0.289,0.252l-0.291,0.249l-0.287,0.241l-0.156,0.13l-0.134,0.11l-0.123,0.101l-0.101,0.083l-0.221,0.185l-0.213,0.181l-0.215,0.185l-0.216,0.188l-0.219,0.192l-0.223,0.197l-0.228,0.203l-0.473,0.42l-0.247,0.219l-0.255,0.225l-0.264,0.231l-0.273,0.236l-0.283,0.241l-0.293,0.246l-0.295,0.244l-0.163,0.133l-0.159,0.128l-0.162,0.129l-0.164,0.129l-0.168,0.13l-0.17,0.131l-0.173,0.131l-0.176,0.132l-0.009,0.007l-0.17,0.125l-0.182,0.133l-0.185,0.132l-0.188,0.133l-0.191,0.133l-0.194,0.133l-0.196,0.132l-0.2,0.133l-0.203,0.132l-0.206,0.132l-0.209,0.132l-0.211,0.131l-0.215,0.131l-0.218,0.131l-0.22,0.13l-0.224,0.129l-0.227,0.129l-0.23,0.128l-0.232,0.128l-0.236,0.127l-0.239,0.127l-0.238,0.123l-0.363,0.186l-0.362,0.183l-0.364,0.182l-0.366,0.18l-0.368,0.18l-0.369,0.178l-0.37,0.177l-0.372,0.176l-0.371,0.174l-0.372,0.173l-0.372,0.171l-0.372,0.17l-0.371,0.168l-0.371,0.166l-0.369,0.164l-0.367,0.162l-0.366,0.16l-0.364,0.158l-0.361,0.156l-0.359,0.153l-0.356,0.151l-0.352,0.148l-0.349,0.145l-0.344,0.143l-0.341,0.14l-0.336,0.137l-0.331,0.133l-0.326,0.131l-0.321,0.128l-0.316,0.124l-0.309,0.12l-0.307,0.119l-0.539,0.205l-0.279,0.105l-0.274,0.103l-0.273,0.101l-0.274,0.1l-0.273,0.1l-0.274,0.098l-0.274,0.097l-0.273,0.097l-0.274,0.095l-0.275,0.094l-0.274,0.094l-0.275,0.092l-0.275,0.091l-0.276,0.09l-0.276,0.088l-0.277,0.088l-0.277,0.086l-0.277,0.085l-0.278,0.083l-0.279,0.083l-0.28,0.081l-0.28,0.08l-0.28,0.078l-0.282,0.077l-0.282,0.075l-0.283,0.074l-0.284,0.073l-0.284,0.071l-0.286,0.069l-0.286,0.068l-0.287,0.066l-0.288,0.064l-0.289,0.063l-0.29,0.061l-0.291,0.059l-0.292,0.058l-0.293,0.056l-0.293,0.054l-0.295,0.052l-0.296,0.05l-0.296,0.048l-0.298,0.046l-0.298,0.044l-0.3,0.043l-0.3,0.04l-0.302,0.038l-0.303,0.036l-0.303,0.035l-0.305,0.032l-0.305,0.029l-0.307,0.028l-0.307,0.026l-0.309,0.023l-0.31,0.021l-0.31,0.019l-0.312,0.017l-0.312,0.014l-0.314,0.013l-0.314,0.009l-0.316,0.008l-0.316,0.006l-0.322,0.003l-0.352,0l-0.357,-0.002l-0.357,-0.006l-0.357,-0.008l-0.358,-0.011l-0.359,-0.014l-0.359,-0.017l-0.359,-0.019l-0.36,-0.021l-0.361,-0.024l-0.361,-0.026l-0.361,-0.029l-0.362,-0.03l-0.362,-0.033l-0.363,-0.035l-0.364,-0.036l-0.363,-0.039l-0.364,-0.04l-0.364,-0.043l-0.364,-0.044l-0.365,-0.045l-0.365,-0.048l-0.364,-0.049l-0.365,-0.051l-0.364,-0.052l-0.365,-0.053l-0.364,-0.055l-0.364,-0.057l-0.363,-0.058l-0.363,-0.059l-0.363,-0.06l-0.362,-0.061l-0.361,-0.063l-0.361,-0.064l-0.36,-0.065l-0.359,-0.065l-0.358,-0.067l-0.357,-0.068l-0.355,-0.069l-0.355,-0.069l-0.353,-0.071l-0.133,-0.026l-0.219,-0.045l-0.35,-0.071l-0.349,-0.073l-0.347,-0.073l-0.345,-0.074l-0.343,-0.074l-0.342,-0.075l-0.339,-0.075l-0.337,-0.076l-0.336,-0.076l-0.333,-0.077l-0.33,-0.077l-0.328,-0.077l-0.326,-0.077l-0.322,-0.078l-0.32,-0.078l-0.323,-0.079l-0.62,-0.155l-0.614,-0.156l-0.603,-0.157l-0.292,-0.077l-0.294,-0.08l-0.293,-0.082l-0.292,-0.083l-0.29,-0.084l-0.289,-0.086l-0.288,-0.088l-0.287,-0.088l-0.286,-0.09l-0.285,-0.092l-0.283,-0.092l-0.283,-0.094l-0.281,-0.094l-0.281,-0.096l-0.279,-0.097l-0.278,-0.098l-0.277,-0.099l-0.276,-0.1l-0.274,-0.1l-0.274,-0.102l-0.273,-0.102l-0.272,-0.103l-0.27,-0.104l-0.27,-0.105l-0.268,-0.105l-0.267,-0.106l-0.267,-0.106l-0.265,-0.107l-0.265,-0.108l-0.268,-0.11l-0.518,-0.215l-0.519,-0.219l-0.516,-0.221l-0.511,-0.221l-0.507,-0.222l-0.503,-0.222l-0.499,-0.223l-0.495,-0.223l-0.491,-0.222l-0.487,-0.222l-0.484,-0.222l-0.949,-0.437l-1.861,-0.861l-0.464,-0.215l-0.472,-0.22l-0.472,-0.222l-0.472,-0.223l-0.473,-0.225l-0.473,-0.227l-0.473,-0.228l-0.473,-0.231l-0.474,-0.232l-0.474,-0.235l-0.473,-0.236l-0.474,-0.239l-0.474,-0.24l-0.474,-0.243l-0.474,-0.245l-0.474,-0.247l-0.473,-0.25l-0.474,-0.252l-0.444,-0.238l-0.029,-0.016l-0.473,-0.257l-0.473,-0.259l-0.472,-0.261l-0.473,-0.265l-0.472,-0.266l-0.471,-0.27l-0.471,-0.272l-0.47,-0.275l-0.47,-0.278l-0.47,-0.28l-0.469,-0.284l-0.468,-0.286l-0.464,-0.287l-0.295,-0.185l-0.296,-0.186l-0.3,-0.19l-0.303,-0.194l-0.307,-0.196l-0.31,-0.201l-0.313,-0.203l-0.317,-0.206l-0.32,-0.21l-0.325,-0.214l-0.65,-0.43l-0.664,-0.443l-0.673,-0.452l-0.68,-0.46l-0.687,-0.466l-0.691,-0.473l-0.696,-0.477l-0.697,-0.481l-0.698,-0.483l-0.698,-0.484l-0.695,-0.485l-0.692,-0.484l-0.687,-0.481l-0.68,-0.479l-0.672,-0.473l-0.662,-0.468l-0.653,-0.462l-1.261,-0.896l-1.201,-0.855l-1.125,-0.804l-1.037,-0.742l-0.936,-0.67l-0.008,-0.006l-2.285,-2.461l-1.134,-3.058l0.089,-3.261l1.371,-3.066l0.012,-0.016l2.461,-2.284l3.058,-1.135l3.261,0.09l3.065,1.37l0.008,0.006l0.933,0.668l1.028,0.735l1.111,0.793l1.181,0.842l1.242,0.882l0.636,0.45l0.648,0.458l0.657,0.463l0.663,0.466l0.668,0.469l0.672,0.47l0.674,0.47l0.675,0.468l0.673,0.466l0.67,0.462l0.665,0.457l0.66,0.45l0.651,0.443l0.642,0.433l0.63,0.423l0.617,0.412l0.605,0.401l0.291,0.191l0.29,0.19l0.285,0.186l0.28,0.182l0.275,0.177l0.269,0.173l0.263,0.168l0.257,0.163l0.251,0.157l0.24,0.15l0.394,0.244l0.392,0.24l0.395,0.239l0.395,0.236l0.398,0.235l0.399,0.233l0.401,0.232l0.402,0.23l0.404,0.229l0.406,0.226l0.407,0.226l0.409,0.224l0.41,0.222l0.025,0.014l0.387,0.207l0.413,0.22l0.414,0.218l0.416,0.217l0.417,0.216l0.419,0.215l0.42,0.213l0.421,0.212l0.422,0.211l0.424,0.209l0.425,0.209l0.426,0.207l0.427,0.207l0.428,0.205l0.43,0.204l0.43,0.204l0.431,0.202l0.433,0.202l0.44,0.204l1.846,0.854l0.922,0.424l0.454,0.208l0.455,0.208l0.452,0.205l0.452,0.203l0.449,0.201l0.447,0.197l0.445,0.195l0.444,0.192l0.441,0.189l0.438,0.185l0.443,0.184l0.212,0.087l0.217,0.088l0.216,0.087l0.215,0.086l0.215,0.085l0.214,0.084l0.214,0.083l0.213,0.082l0.212,0.08l0.211,0.08l0.211,0.078l0.21,0.077l0.209,0.075l0.209,0.075l0.207,0.073l0.207,0.072l0.206,0.07l0.205,0.069l0.205,0.068l0.203,0.066l0.203,0.065l0.201,0.064l0.201,0.062l0.2,0.06l0.199,0.059l0.198,0.058l0.197,0.056l0.196,0.055l0.195,0.053l0.197,0.052l0.518,0.135l0.534,0.136l0.551,0.137l0.272,0.067l0.28,0.068l0.282,0.068l0.285,0.068l0.287,0.067l0.29,0.067l0.291,0.067l0.293,0.067l0.295,0.066l0.296,0.066l0.298,0.065l0.299,0.065l0.301,0.064l0.302,0.064l0.302,0.063l0.304,0.062l0.189,0.038l0.115,0.024l0.305,0.06l0.305,0.06l0.306,0.059l0.306,0.058l0.306,0.057l0.306,0.056l0.306,0.056l0.305,0.054l0.305,0.052l0.304,0.052l0.304,0.051l0.303,0.049l0.301,0.048l0.301,0.046l0.299,0.046l0.298,0.043l0.296,0.043l0.295,0.041l0.292,0.039l0.291,0.038l0.288,0.036l0.286,0.035l0.283,0.033l0.281,0.031l0.278,0.029l0.274,0.028l0.272,0.026l0.268,0.024l0.264,0.022l0.261,0.021l0.257,0.019l0.253,0.016l0.248,0.015l0.243,0.013l0.239,0.011l0.234,0.009l0.228,0.007l0.223,0.005l0.217,0.004l0.211,0.001l0.209,0l0.191,-0.002l0.193,-0.003l0.191,-0.005l0.191,-0.006l0.189,-0.007l0.189,-0.009l0.187,-0.01l0.186,-0.012l0.186,-0.012l0.185,-0.014l0.184,-0.015l0.183,-0.017l0.183,-0.018l0.183,-0.019l0.182,-0.021l0.181,-0.021l0.182,-0.023l0.181,-0.025l0.181,-0.025l0.182,-0.027l0.181,-0.028l0.181,-0.03l0.182,-0.03l0.181,-0.033l0.182,-0.033l0.183,-0.035l0.183,-0.036l0.183,-0.037l0.184,-0.039l0.185,-0.04l0.185,-0.042l0.186,-0.042l0.187,-0.045l0.188,-0.045l0.189,-0.047l0.189,-0.049l0.191,-0.049l0.192,-0.052l0.193,-0.052l0.194,-0.055l0.195,-0.055l0.197,-0.057l0.198,-0.059l0.199,-0.06l0.201,-0.061l0.202,-0.063l0.204,-0.064l0.205,-0.066l0.207,-0.068l0.208,-0.069l0.21,-0.07l0.212,-0.072l0.214,-0.073l0.215,-0.075l0.217,-0.077l0.219,-0.077l0.22,-0.08l0.223,-0.081l0.224,-0.082l0.227,-0.084l0.228,-0.085l0.225,-0.085l0.475,-0.181l0.248,-0.096l0.258,-0.101l0.267,-0.104l0.273,-0.109l0.279,-0.112l0.285,-0.115l0.291,-0.118l0.296,-0.122l0.301,-0.124l0.304,-0.127l0.308,-0.13l0.312,-0.132l0.314,-0.134l0.316,-0.136l0.318,-0.138l0.32,-0.14l0.321,-0.142l0.321,-0.143l0.322,-0.144l0.321,-0.145l0.321,-0.146l0.319,-0.147l0.318,-0.148l0.315,-0.148l0.313,-0.148l0.31,-0.148l0.307,-0.148l0.302,-0.148l0.298,-0.147l0.293,-0.146l0.288,-0.146l0.278,-0.142l0.134,-0.07l0.126,-0.066l0.123,-0.067l0.12,-0.065l0.117,-0.065l0.113,-0.065l0.111,-0.064l0.108,-0.064l0.106,-0.063l0.103,-0.063l0.101,-0.063l0.099,-0.062l0.097,-0.062l0.095,-0.063l0.094,-0.062l0.093,-0.062l0.091,-0.063l0.09,-0.063l0.089,-0.063l0.089,-0.063l0.088,-0.064l0.083,-0.061l0.004,-0.004l0.088,-0.065l0.087,-0.066l0.087,-0.067l0.088,-0.068l0.087,-0.069l0.089,-0.07l0.088,-0.072l0.082,-0.067l0.19,-0.157l0.187,-0.156l0.191,-0.164l0.197,-0.171l0.205,-0.178l0.212,-0.187l0.22,-0.195l0.468,-0.416l0.247,-0.22l0.259,-0.228l0.269,-0.236l0.28,-0.244l0.291,-0.25l0.303,-0.258l0.308,-0.257l0.168,-0.139l0.149,-0.123l0.099,-0.081l0.076,-0.062l0.175,-0.147l0.166,-0.143l0.165,-0.145l0.166,-0.147l0.164,-0.15l0.165,-0.151l0.163,-0.155l0.163,-0.156l0.163,-0.159l0.163,-0.161l0.161,-0.164l0.162,-0.166l0.161,-0.168l0.16,-0.17l0.161,-0.173l0.159,-0.175l0.16,-0.177l0.158,-0.179l0.159,-0.182l0.158,-0.184l0.157,-0.185l0.158,-0.188l0.156,-0.191l0.157,-0.192l0.156,-0.194l0.155,-0.196l0.155,-0.199l0.155,-0.2l0.154,-0.202l0.154,-0.204l0.153,-0.206l0.153,-0.208l0.153,-0.21l0.152,-0.211l0.152,-0.214l0.152,-0.215l0.151,-0.216l0.151,-0.219l0.15,-0.22l0.15,-0.222l0.15,-0.223l0.149,-0.225l0.15,-0.226l0.148,-0.228l0.149,-0.229l0.148,-0.231l0.148,-0.232l0.147,-0.234l0.147,-0.235l0.147,-0.236l0.147,-0.237l0.147,-0.238l0.136,-0.223l0.01,-0.017l0.146,-0.241l0.143,-0.237l0.295,-0.492l0.29,-0.491l0.29,-0.495l0.287,-0.493l0.129,-0.223l0.125,-0.221l0.125,-0.223l0.124,-0.225l0.124,-0.227l0.124,-0.229l0.122,-0.23l0.122,-0.232l0.122,-0.235l0.121,-0.235l0.12,-0.238l0.119,-0.239l0.119,-0.24l0.119,-0.243l0.117,-0.243l0.117,-0.246l0.117,-0.246l0.116,-0.248l0.115,-0.25l0.114,-0.251l0.114,-0.252l0.113,-0.253l0.112,-0.254l0.112,-0.256l0.111,-0.257l0.111,-0.257l0.109,-0.259l0.109,-0.26l0.109,-0.261l0.107,-0.262l0.107,-0.263l0.107,-0.263l0.105,-0.264l0.105,-0.266l0.104,-0.265l0.104,-0.267l0.103,-0.267l0.102,-0.268l0.102,-0.268l0.101,-0.269l0.1,-0.27l0.1,-0.27l0.098,-0.27l0.099,-0.271l0.097,-0.271l0.096,-0.267l0.193,-0.548l0.19,-0.545l0.186,-0.545l0.185,-0.546l0.182,-0.545l0.179,-0.545l0.177,-0.545l0.023,-0.072l0.152,-0.471l0.171,-0.541l0.077,-0.244l0.075,-0.243l0.075,-0.244l0.074,-0.245l0.073,-0.245l0.072,-0.247l0.072,-0.247l0.071,-0.248l0.07,-0.249l0.07,-0.249l0.069,-0.251l0.068,-0.251l0.068,-0.252l0.067,-0.253l0.066,-0.253l0.066,-0.254l0.065,-0.255l0.064,-0.256l0.064,-0.256l0.063,-0.257l0.062,-0.258l0.062,-0.258l0.061,-0.259l0.061,-0.259l0.059,-0.26l0.06,-0.261l0.059,-0.261l0.056,-0.257l0.116,-0.53l0.112,-0.528l0.11,-0.529l0.108,-0.532l0.106,-0.533l0.103,-0.535l0.102,-0.537l0.099,-0.538l0.098,-0.54l0.095,-0.541l0.094,-0.542l0.092,-0.544l0.09,-0.545l0.089,-0.545l0.087,-0.547l0.086,-0.547l0.028,-0.187l0.056,-0.362l0.082,-0.544l0.078,-0.532l0.075,-0.529l0.073,-0.53l0.071,-0.532l0.068,-0.532l0.067,-0.534l0.064,-0.535l0.062,-0.536l0.06,-0.537l0.057,-0.538l0.056,-0.539l0.045,-0.457l0.008,-0.083l0.051,-0.54l0.05,-0.542l0.047,-0.543l0.045,-0.544l0.043,-0.545l0.041,-0.545l0.039,-0.547l0.038,-0.547l0.035,-0.548l0.033,-0.549l0.032,-0.55l0,-0.012l0.08,-0.536l0.079,-0.549l0.078,-0.55l0.075,-0.551l0.074,-0.553l0.073,-0.553l0.07,-0.554l0.069,-0.555l0.007,-0.061l0.102,-0.494l0.064,-0.304l0.064,-0.311l0.064,-0.319l0.064,-0.325l0.064,-0.331l0.065,-0.337l0.064,-0.343l0.064,-0.344l0.129,-0.716l0.125,-0.707l0.006,-0.022l0.194,-0.747l0.194,-0.76l0.194,-0.773l0.194,-0.783l0.193,-0.792l0.193,-0.797l0.191,-0.803l0.191,-0.804l0.188,-0.806l0.187,-0.804l0.184,-0.8l0.038,-0.166l0.202,-0.632l0.252,-0.791l0.249,-0.782l0.243,-0.773l0.239,-0.759l0.46,-1.476l0.435,-1.404l0.407,-1.319l0.373,-1.218l0.306,-0.998l0.038,-0.106l1.358,-1.467l1.467,1.358Z"/>
  </g>
</svg>