<?xml version="1.0" encoding="UTF-8" standalone="no"?>
<!DOCTYPE svg PUBLIC "-//W3C//DTD SVG 1.1//EN" "http://www.w3.org/Graphics/SVG/1.1/DTD/svg11.dtd">
<svg width="100%" height="100%" viewBox="0 0 1280 800" version="1.1" xmlns="http://www.w3.org/2000/svg" xmlns:xlink="http://www.w3.org/1999/xlink" xml:space="preserve" xmlns:serif="http://www.serif.com/" style="fill-rule:evenodd;clip-rule:evenodd;stroke-linecap:round;stroke-linejoin:round;stroke-miterlimit:1.5;">
    <g transform="matrix(1.84346,0,0,1.93596,-539.801,-480.401)">
        <ellipse cx="634.567" cy="455.795" rx="211.558" ry="201.45" style="fill:rgb(74,74,74);stroke:rgb(74,74,75);stroke-width:0.53px;"/>
    </g>
    <g transform="matrix(3.09508,0,0,3.09508,-1364.27,-891.229)">
        <path d="M620.333,416.444C626.185,415.778 631.556,414.444 636.444,412.444C641.333,410.444 645.537,407.852 649.056,404.667C652.574,401.481 655.296,397.778 657.222,393.556C659.148,389.333 660.111,384.667 660.111,379.556C660.111,376.148 659.444,372.944 658.111,369.944C656.778,366.944 654.889,364.333 652.444,362.111C650,359.889 647.074,358.148 643.667,356.889C640.259,355.63 636.481,355 632.333,355C629.444,355 626.407,355.5 623.222,356.5C620.037,357.5 616.981,358.889 614.056,360.667C611.13,362.444 608.426,364.5 605.944,366.833C603.463,369.167 601.444,371.667 599.889,374.333L595.333,372.556C596.963,367.889 599.167,363.5 601.944,359.389C604.722,355.278 608.037,351.685 611.889,348.611C615.741,345.537 620.13,343.111 625.056,341.333C629.981,339.556 635.444,338.667 641.444,338.667C647.074,338.667 652.352,339.5 657.278,341.167C662.204,342.833 666.5,345.13 670.167,348.056C673.833,350.981 676.741,354.444 678.889,358.444C681.037,362.444 682.111,366.778 682.111,371.444C682.111,373.815 681.5,376.481 680.278,379.444C679.056,382.407 677.37,385.407 675.222,388.444C673.074,391.481 670.574,394.444 667.722,397.333C664.87,400.222 661.852,402.815 658.667,405.111C663.111,406.444 667.278,408.5 671.167,411.278C675.056,414.056 678.444,417.315 681.333,421.056C684.222,424.796 686.5,428.815 688.167,433.111C689.833,437.407 690.667,441.704 690.667,446C690.667,455.185 688.87,463.185 685.278,470C681.685,476.815 676.741,482.5 670.444,487.056C664.148,491.611 656.704,495.019 648.111,497.278C639.519,499.537 630.259,500.667 620.333,500.667C616.111,500.667 612.333,500.352 609,499.722C605.667,499.093 602.833,498.222 600.5,497.111C598.167,496 596.37,494.667 595.111,493.111C593.852,491.556 593.222,489.815 593.222,487.889C593.222,486.259 593.63,484.889 594.444,483.778C595.259,482.667 596.296,481.778 597.556,481.111C598.815,480.444 600.185,479.963 601.667,479.667C603.148,479.37 604.556,479.222 605.889,479.222C608.63,479.222 611,479.5 613,480.056C615,480.611 616.778,481.296 618.333,482.111C619.889,482.926 621.333,483.796 622.667,484.722C624,485.648 625.407,486.519 626.889,487.333C628.37,488.148 630.019,488.833 631.833,489.389C633.648,489.944 635.815,490.222 638.333,490.222C643.741,490.222 648.5,489.333 652.611,487.556C656.722,485.778 660.185,483.407 663,480.444C665.815,477.481 667.944,474.074 669.389,470.222C670.833,466.37 671.556,462.333 671.556,458.111C671.556,452.778 670.537,447.815 668.5,443.222C666.463,438.63 663.333,434.648 659.111,431.278C654.889,427.907 649.556,425.278 643.111,423.389C636.667,421.5 629.074,420.556 620.333,420.556L620.333,416.444Z" style="fill:white;fill-rule:nonzero;"/>
    </g>
</svg>
