<?xml version="1.0" encoding="UTF-8" standalone="no"?>
<!DOCTYPE svg PUBLIC "-//W3C//DTD SVG 1.1//EN" "http://www.w3.org/Graphics/SVG/1.1/DTD/svg11.dtd">
<svg width="100%" height="100%" viewBox="0 0 1280 800" version="1.1" xmlns="http://www.w3.org/2000/svg" xmlns:xlink="http://www.w3.org/1999/xlink" xml:space="preserve" xmlns:serif="http://www.serif.com/" style="fill-rule:evenodd;clip-rule:evenodd;stroke-linecap:round;stroke-linejoin:round;stroke-miterlimit:1.5;">
    <g transform="matrix(1.84346,0,0,1.93596,-539.801,-480.401)">
        <ellipse cx="634.567" cy="455.795" rx="211.558" ry="201.45" style="fill:rgb(74,74,74);stroke:rgb(74,74,75);stroke-width:0.53px;"/>
    </g>
    <g transform="matrix(3.09508,0,0,3.09508,-1364.27,-891.229)">
        <path d="M589.111,497L589.111,492.889C600.593,482 610.537,472.407 618.944,464.111C627.352,455.815 634.481,448.463 640.333,442.056C646.185,435.648 650.944,430.056 654.611,425.278C658.278,420.5 661.13,416.222 663.167,412.444C665.204,408.667 666.593,405.204 667.333,402.056C668.074,398.907 668.444,395.741 668.444,392.556C668.444,387.963 667.722,383.519 666.278,379.222C664.833,374.926 662.704,371.111 659.889,367.778C657.074,364.444 653.574,361.778 649.389,359.778C645.204,357.778 640.333,356.778 634.778,356.778C630.481,356.778 626.259,357.519 622.111,359C617.963,360.481 614.185,362.481 610.778,365C607.37,367.519 604.519,370.481 602.222,373.889C599.926,377.296 598.444,380.926 597.778,384.778L593.222,384.778C593.667,378.407 595.333,372.426 598.222,366.833C601.111,361.241 604.796,356.352 609.278,352.167C613.759,347.981 618.889,344.685 624.667,342.278C630.444,339.87 636.519,338.667 642.889,338.667C650.889,338.667 657.926,339.815 664,342.111C670.074,344.407 675.13,347.5 679.167,351.389C683.204,355.278 686.259,359.796 688.333,364.944C690.407,370.093 691.444,375.519 691.444,381.222C691.444,387.222 690.13,393.278 687.5,399.389C684.87,405.5 680.593,412.333 674.667,419.889C668.741,427.444 661.037,436.037 651.556,445.667C642.074,455.296 630.481,466.556 616.778,479.444L699.556,479.444L688,497L589.111,497Z" style="fill:white;fill-rule:nonzero;"/>
    </g>
</svg>
